<?xml version="1.0" encoding="UTF-8"?>
<svg version="1.1" xmlns="http://www.w3.org/2000/svg" width="512" height="512">
<path d="M0 0 C74.58 0 149.16 0 226 0 C226 6.6 226 13.2 226 20 C239.53 20 253.06 20 267 20 C267 26.6 267 33.2 267 40 C273.5370285 39.96041741 273.5370285 39.96041741 280.07397461 39.90991211 C281.28839233 39.90616577 281.28839233 39.90616577 282.52734375 39.90234375 C283.77632446 39.89448853 283.77632446 39.89448853 285.05053711 39.88647461 C287 40 287 40 288 41 C288.08669432 42.4887186 288.10703494 43.981445 288.09765625 45.47265625 C288.09443359 46.37177734 288.09121094 47.27089844 288.08789062 48.19726562 C288.07951172 49.14279297 288.07113281 50.08832031 288.0625 51.0625 C288.05798828 52.01189453 288.05347656 52.96128906 288.04882812 53.93945312 C288.0370011 56.29303065 288.02052025 58.64648477 288 61 C289.21171875 60.98839844 290.4234375 60.97679687 291.671875 60.96484375 C303.81601291 60.88665212 315.87814789 61.27784711 328 62 C328.7958092 75.35822585 329.095595 88.61669993 329 102 C335.6 102 342.2 102 349 102 C349 108.93 349 115.86 349 123 C355.6 123 362.2 123 369 123 C369 190.65 369 258.3 369 328 C362.4 328 355.8 328 349 328 C349.03958259 334.5370285 349.03958259 334.5370285 349.09008789 341.07397461 C349.09383423 342.28839233 349.09383423 342.28839233 349.09765625 343.52734375 C349.10551147 344.77632446 349.10551147 344.77632446 349.11352539 346.05053711 C349 348 349 348 348 349 C346.5112814 349.08669432 345.018555 349.10703494 343.52734375 349.09765625 C342.62822266 349.09443359 341.72910156 349.09121094 340.80273438 349.08789062 C339.85720703 349.07951172 338.91167969 349.07113281 337.9375 349.0625 C336.5134082 349.05573242 336.5134082 349.05573242 335.06054688 349.04882812 C332.70700469 349.03700128 330.35349468 349.01906521 328 349 C328.33 355.27 328.66 361.54 329 368 C335.6 368.33 342.2 368.66 349 369 C349 375.6 349 382.2 349 389 C355.6 389 362.2 389 369 389 C369 429.59 369 470.18 369 512 C328.41 512 287.82 512 246 512 C246 505.4 246 498.8 246 492 C239.4629715 492.03958259 239.4629715 492.03958259 232.92602539 492.09008789 C232.11641357 492.09258545 231.30680176 492.09508301 230.47265625 492.09765625 C229.22367554 492.10551147 229.22367554 492.10551147 227.94946289 492.11352539 C226 492 226 492 225 491 C224.91330568 489.5112814 224.89296506 488.018555 224.90234375 486.52734375 C224.90484131 485.71773193 224.90733887 484.90812012 224.90991211 484.07397461 C224.92356812 482.52141968 224.92356812 482.52141968 224.9375 480.9375 C224.958125 477.658125 224.97875 474.37875 225 471 C218.4 471 211.8 471 205 471 C205 464.4 205 457.8 205 451 C198.4 451 191.8 451 185 451 C184.67 444.4 184.34 437.8 184 431 C177.73 430.67 171.46 430.34 165 430 C165.01160156 431.43214844 165.02320313 432.86429687 165.03515625 434.33984375 C165.04453255 436.20572787 165.05363292 438.07161339 165.0625 439.9375 C165.07087891 440.88302734 165.07925781 441.82855469 165.08789062 442.80273438 C165.09272461 444.15141602 165.09272461 444.15141602 165.09765625 445.52734375 C165.10551147 446.77632446 165.10551147 446.77632446 165.11352539 448.05053711 C165 450 165 450 164 451 C162.5112814 451.08669432 161.018555 451.10703494 159.52734375 451.09765625 C158.71773193 451.09515869 157.90812012 451.09266113 157.07397461 451.09008789 C156.03893799 451.08098389 155.00390137 451.07187988 153.9375 451.0625 C150.658125 451.041875 147.37875 451.02125 144 451 C144 457.6 144 464.2 144 471 C130.33276778 471.77396461 116.74927874 472.16375946 103.0625 472.125 C102.15187805 472.12411377 101.2412561 472.12322754 100.30303955 472.12231445 C87.17081337 472.1073276 74.10988066 471.83237338 61 471 C61 464.4 61 457.8 61 451 C34.27 451 7.54 451 -20 451 C-20 457.93 -20 464.86 -20 472 C-33.53 472 -47.06 472 -61 472 C-61 478.6 -61 485.2 -61 492 C-74.53 492 -88.06 492 -102 492 C-102 498.6 -102 505.2 -102 512 C-115.53 512 -129.06 512 -143 512 C-143 478.01 -143 444.02 -143 409 C-136.4 409 -129.8 409 -123 409 C-123 382.27 -123 355.54 -123 328 C-129.6 328 -136.2 328 -143 328 C-143 260.35 -143 192.7 -143 123 C-136.4 123 -129.8 123 -123 123 C-123 116.07 -123 109.14 -123 102 C-116.4 102 -109.8 102 -103 102 C-103.020625 99.1125 -103.04125 96.225 -103.0625 93.25 C-103.0982938 82.80868524 -102.62078655 72.42034561 -102 62 C-88.65012592 61.20468835 -75.37293838 60.87196123 -62 61 C-62.00523682 60.39937744 -62.01047363 59.79875488 -62.01586914 59.17993164 C-62.03658014 56.47413162 -62.04964125 53.76834823 -62.0625 51.0625 C-62.07087891 50.11697266 -62.07925781 49.17144531 -62.08789062 48.19726562 C-62.09111328 47.29814453 -62.09433594 46.39902344 -62.09765625 45.47265625 C-62.10289307 44.64000244 -62.10812988 43.80734863 -62.11352539 42.94946289 C-62 41 -62 41 -61 40 C-59.5112814 39.91330568 -58.018555 39.89296506 -56.52734375 39.90234375 C-55.71773193 39.90484131 -54.90812012 39.90733887 -54.07397461 39.90991211 C-53.03893799 39.91901611 -52.00390137 39.92812012 -50.9375 39.9375 C-47.658125 39.958125 -44.37875 39.97875 -41 40 C-41 33.4 -41 26.8 -41 20 C-27.47 20 -13.94 20 0 20 C0 13.4 0 6.8 0 0 Z M103 41 C103 47.93 103 54.86 103 62 C75.94 62 48.88 62 21 62 C21 68.6 21 75.2 21 82 C7.47 82 -6.06 82 -20 82 C-20 88.93 -20 95.86 -20 103 C-26.6 103 -33.2 103 -40 103 C-40 109.6 -40 116.2 -40 123 C-46.93 123 -53.86 123 -61 123 C-61 136.53 -61 150.06 -61 164 C-67.6 164 -74.2 164 -81 164 C-81.1448371 169.47277337 -81.28798384 174.94554518 -81.42724609 180.41845703 C-81.47482928 182.2703689 -81.52329566 184.12225835 -81.57275391 185.97412109 C-81.91950452 198.98788402 -82.04708404 211.98126302 -82 225 C-88.6 225 -95.2 225 -102 225 C-102 231.6 -102 238.2 -102 245 C-95.07 245 -88.14 245 -81 245 C-81 265.46 -81 285.92 -81 307 C-74.4 307 -67.8 307 -61 307 C-61 313.6 -61 320.2 -61 327 C-54.07 327 -47.14 327 -40 327 C-40 347.46 -40 367.92 -40 389 C-6.34 389 27.32 389 62 389 C62 395.6 62 402.2 62 409 C89.06 409 116.12 409 144 409 C144.02680293 394.08226875 144.02680293 394.08226875 143.78125 379.17578125 C143.75905396 378.29262741 143.73685791 377.40947357 143.71398926 376.4995575 C143.64490125 373.77047514 143.57253945 371.04149254 143.5 368.3125 C143.45160181 366.42383378 143.40342377 364.5351619 143.35546875 362.64648438 C143.23990286 358.09757173 143.1198745 353.54880911 143 349 C136.4 349 129.8 349 123 349 C123 321.61 123 294.22 123 266 C150.39 266 177.78 266 206 266 C206 272.6 206 279.2 206 286 C211.47277337 286.1448371 216.94554518 286.28798384 222.41845703 286.42724609 C224.2703689 286.47482928 226.12225835 286.52329566 227.97412109 286.57275391 C240.98788402 286.91950452 253.98126302 287.04708404 267 287 C267 293.6 267 300.2 267 307 C273.6 307 280.2 307 287 307 C286.9375 316.9375 286.9375 316.9375 286.90991211 320.07397461 C286.90741455 320.88358643 286.90491699 321.69319824 286.90234375 322.52734375 C286.89710693 323.35999756 286.89187012 324.19265137 286.88647461 325.05053711 C286.78356708 327.00516798 286.78356708 327.00516798 288 328 C294.27 328 300.54 328 307 328 C307 300.61 307 273.22 307 245 C313.93 245 320.86 245 328 245 C328 238.4 328 231.8 328 225 C321.4 225 314.8 225 308 225 C308.0103125 222.14859375 308.020625 219.2971875 308.03125 216.359375 C308.04589781 205.31721619 307.79478237 194.28752229 307.5 183.25 C307.45158955 181.3658914 307.40341158 179.48177681 307.35546875 177.59765625 C307.24006346 173.06501418 307.11995361 168.53253289 307 164 C300.4 164 293.8 164 287 164 C287 150.47 287 136.94 287 123 C280.07 123 273.14 123 266 123 C266 116.4 266 109.8 266 103 C259.4 103 252.8 103 246 103 C246 96.07 246 89.14 246 82 C232.47 82 218.94 82 205 82 C205 75.4 205 68.8 205 62 C177.94 62 150.88 62 123 62 C123 55.07 123 48.14 123 41 C116.4 41 109.8 41 103 41 Z M206 349 C206 355.27 206 361.54 206 368 C212.27 368 218.54 368 225 368 C225 361.73 225 355.46 225 349 C218.73 349 212.46 349 206 349 Z M226 369 C226 375.6 226 382.2 226 389 C232.6 389 239.2 389 246 389 C246 382.4 246 375.8 246 369 C239.4 369 232.8 369 226 369 Z M-61 390 C-61 396.27 -61 402.54 -61 409 C-54.4 409 -47.8 409 -41 409 C-41 402.73 -41 396.46 -41 390 C-47.6 390 -54.2 390 -61 390 Z M247 390 C247 396.27 247 402.54 247 409 C253.27 409 259.54 409 266 409 C266 402.73 266 396.46 266 390 C259.73 390 253.46 390 247 390 Z M144 410 C144 416.6 144 423.2 144 430 C150.6 430 157.2 430 164 430 C164 423.4 164 416.8 164 410 C157.4 410 150.8 410 144 410 Z " fill="#000000" transform="translate(143,0)"/>
<path d="M0 0 C13.86 0 27.72 0 42 0 C42 20.46 42 40.92 42 62 C21.54 62 1.08 62 -20 62 C-20 48.14 -20 34.28 -20 20 C-13.4 20 -6.8 20 0 20 C0 13.4 0 6.8 0 0 Z " fill="#000000" transform="translate(327,184)"/>
<path d="M0 0 C7.26 0 14.52 0 22 0 C22 6.6 22 13.2 22 20 C28.6 20 35.2 20 42 20 C42 33.86 42 47.72 42 62 C21.54 62 1.08 62 -20 62 C-20 48.14 -20 34.28 -20 20 C-13.4 20 -6.8 20 0 20 C0 13.4 0 6.8 0 0 Z " fill="#000000" transform="translate(245,184)"/>
<path d="M0 0 C13.86 0 27.72 0 42 0 C42 6.93 42 13.86 42 21 C48.6 21 55.2 21 62 21 C62.020625 24.279375 62.04125 27.55875 62.0625 30.9375 C62.071604 31.97253662 62.08070801 33.00757324 62.09008789 34.07397461 C62.09258545 34.88358643 62.09508301 35.69319824 62.09765625 36.52734375 C62.10289307 37.35999756 62.10812988 38.19265137 62.11352539 39.05053711 C62 41 62 41 61 42 C59.58429877 42.08651611 58.164405 42.10704904 56.74609375 42.09765625 C55.59258423 42.09390991 55.59258423 42.09390991 54.41577148 42.09008789 C53.43294189 42.08098389 52.4501123 42.07187988 51.4375 42.0625 C48.323125 42.041875 45.20875 42.02125 42 42 C42 48.6 42 55.2 42 62 C28.14 62 14.28 62 0 62 C0 41.54 0 21.08 0 0 Z " fill="#000000" transform="translate(143,184)"/>
</svg>
