<?xml version="1.0" encoding="UTF-8"?>
<svg version="1.1" xmlns="http://www.w3.org/2000/svg" width="512" height="512">
<path d="M0 0 C128.7 0 257.4 0 390 0 C390 6.6 390 13.2 390 20 C396.5370285 19.96041741 396.5370285 19.96041741 403.07397461 19.90991211 C404.28839233 19.90616577 404.28839233 19.90616577 405.52734375 19.90234375 C406.77632446 19.89448853 406.77632446 19.89448853 408.05053711 19.88647461 C410 20 410 20 411 21 C411.08669432 22.4887186 411.10703494 23.981445 411.09765625 25.47265625 C411.09515869 26.28226807 411.09266113 27.09187988 411.09008789 27.92602539 C411.07643188 29.47858032 411.07643188 29.47858032 411.0625 31.0625 C411.041875 34.341875 411.02125 37.62125 411 41 C417.6 41 424.2 41 431 41 C431 142.64 431 244.28 431 349 C424.4 349 417.8 349 411 349 C411.03958259 355.5370285 411.03958259 355.5370285 411.09008789 362.07397461 C411.09383423 363.28839233 411.09383423 363.28839233 411.09765625 364.52734375 C411.10551147 365.77632446 411.10551147 365.77632446 411.11352539 367.05053711 C411 369 411 369 410 370 C408.5112814 370.08669432 407.018555 370.10703494 405.52734375 370.09765625 C404.71773193 370.09515869 403.90812012 370.09266113 403.07397461 370.09008789 C402.03893799 370.08098389 401.00390137 370.07187988 399.9375 370.0625 C396.658125 370.041875 393.37875 370.02125 390 370 C390 376.6 390 383.2 390 390 C261.3 390 132.6 390 0 390 C0 383.4 0 376.8 0 370 C-6.5370285 370.03958259 -6.5370285 370.03958259 -13.07397461 370.09008789 C-13.88358643 370.09258545 -14.69319824 370.09508301 -15.52734375 370.09765625 C-16.77632446 370.10551147 -16.77632446 370.10551147 -18.05053711 370.11352539 C-20 370 -20 370 -21 369 C-21.08669432 367.5112814 -21.10703494 366.018555 -21.09765625 364.52734375 C-21.09515869 363.71773193 -21.09266113 362.90812012 -21.09008789 362.07397461 C-21.08098389 361.03893799 -21.07187988 360.00390137 -21.0625 358.9375 C-21.041875 355.658125 -21.02125 352.37875 -21 349 C-27.6 349 -34.2 349 -41 349 C-41 247.36 -41 145.72 -41 41 C-34.4 41 -27.8 41 -21 41 C-21.03958259 34.4629715 -21.03958259 34.4629715 -21.09008789 27.92602539 C-21.09258545 27.11641357 -21.09508301 26.30680176 -21.09765625 25.47265625 C-21.10551147 24.22367554 -21.10551147 24.22367554 -21.11352539 22.94946289 C-21 21 -21 21 -20 20 C-18.5112814 19.91330568 -17.018555 19.89296506 -15.52734375 19.90234375 C-14.71773193 19.90484131 -13.90812012 19.90733887 -13.07397461 19.90991211 C-12.03893799 19.91901611 -11.00390137 19.92812012 -9.9375 19.9375 C-6.658125 19.958125 -3.37875 19.97875 0 20 C0 13.4 0 6.8 0 0 Z M62 62 C62 68.6 62 75.2 62 82 C68.93 82 75.86 82 83 82 C83 88.6 83 95.2 83 102 C89.6 102 96.2 102 103 102 C103 108.93 103 115.86 103 123 C109.93 123 116.86 123 124 123 C124 129.6 124 136.2 124 143 C143.8 143.495 143.8 143.495 164 144 C164.33 150.6 164.66 157.2 165 164 C184.8 164 204.6 164 225 164 C225.33 157.4 225.66 150.8 226 144 C239.2 143.67 252.4 143.34 266 143 C266 136.4 266 129.8 266 123 C272.93 123 279.86 123 287 123 C287 116.07 287 109.14 287 102 C293.6 102 300.2 102 307 102 C307 95.4 307 88.8 307 82 C313.93 82 320.86 82 328 82 C328 75.4 328 68.8 328 62 C240.22 62 152.44 62 62 62 Z M21 144 C21 197.79 21 251.58 21 307 C30.9 307.495 30.9 307.495 41 308 C41.33 314.6 41.66 321.2 42 328 C142.98 328 243.96 328 348 328 C348 321.4 348 314.8 348 308 C354.93 308 361.86 308 369 308 C369 253.88 369 199.76 369 144 C362.4 144 355.8 144 349 144 C349 150.93 349 157.86 349 165 C342.07 165 335.14 165 328 165 C328 171.6 328 178.2 328 185 C314.8 185 301.6 185 288 185 C288 191.93 288 198.86 288 206 C281.07 206 274.14 206 267 206 C267 212.6 267 219.2 267 226 C246.54 226 226.08 226 205 226 C205 232.6 205 239.2 205 246 C198.4 246 191.8 246 185 246 C185 239.4 185 232.8 185 226 C164.54 226 144.08 226 123 226 C123 219.4 123 212.8 123 206 C116.07 206 109.14 206 102 206 C102 199.07 102 192.14 102 185 C88.8 185 75.6 185 62 185 C62 178.4 62 171.8 62 165 C55.07 165 48.14 165 41 165 C41 158.07 41 151.14 41 144 C34.4 144 27.8 144 21 144 Z " fill="#000000" transform="translate(61,61)"/>
</svg>
