<?xml version="1.0" encoding="UTF-8"?>
<svg version="1.1" xmlns="http://www.w3.org/2000/svg" width="512" height="512">
<path d="M0 0 C34.32 0 68.64 0 104 0 C104 6.6 104 13.2 104 20 C124.13 20 144.26 20 165 20 C165 26.6 165 33.2 165 40 C168.0525 39.979375 171.105 39.95875 174.25 39.9375 C184.86692506 39.90295012 195.40102576 40.38998709 206 41 C206 47.6 206 54.2 206 61 C212.93 61 219.86 61 227 61 C227 67.6 227 74.2 227 81 C233.6 81 240.2 81 247 81 C247 87.93 247 94.86 247 102 C253.6 102 260.2 102 267 102 C267.78892986 115.70765637 268.09277464 129.26935286 268 143 C274.6 143 281.2 143 288 143 C288 163.13 288 183.26 288 204 C294.6 204 301.2 204 308 204 C308 238.32 308 272.64 308 308 C301.4 308 294.8 308 288 308 C288 328.13 288 348.26 288 369 C281.4 369 274.8 369 268 369 C268.0309375 373.57875 268.0309375 373.57875 268.0625 378.25 C268.09704988 388.86692506 267.61001291 399.40102576 267 410 C260.4 410 253.8 410 247 410 C247 416.93 247 423.86 247 431 C240.4 431 233.8 431 227 431 C227 437.6 227 444.2 227 451 C220.07 451 213.14 451 206 451 C206 457.6 206 464.2 206 471 C192.29234363 471.78892986 178.73064714 472.09277464 165 472 C165 478.6 165 485.2 165 492 C144.87 492 124.74 492 104 492 C104 498.6 104 505.2 104 512 C69.68 512 35.36 512 0 512 C0 505.4 0 498.8 0 492 C-20.13 492 -40.26 492 -61 492 C-61 485.4 -61 478.8 -61 472 C-64.0525 472.020625 -67.105 472.04125 -70.25 472.0625 C-80.86692506 472.09704988 -91.40102576 471.61001291 -102 471 C-102 464.4 -102 457.8 -102 451 C-108.93 451 -115.86 451 -123 451 C-123 444.4 -123 437.8 -123 431 C-129.6 431 -136.2 431 -143 431 C-143 424.07 -143 417.14 -143 410 C-149.6 410 -156.2 410 -163 410 C-163.78892986 396.29234363 -164.09277464 382.73064714 -164 369 C-170.6 369 -177.2 369 -184 369 C-184 348.87 -184 328.74 -184 308 C-190.6 308 -197.2 308 -204 308 C-204 273.68 -204 239.36 -204 204 C-197.4 204 -190.8 204 -184 204 C-184 183.87 -184 163.74 -184 143 C-177.4 143 -170.8 143 -164 143 C-164.020625 139.9475 -164.04125 136.895 -164.0625 133.75 C-164.09704988 123.13307494 -163.61001291 112.59897424 -163 102 C-156.4 102 -149.8 102 -143 102 C-143 95.07 -143 88.14 -143 81 C-136.4 81 -129.8 81 -123 81 C-123 74.4 -123 67.8 -123 61 C-116.07 61 -109.14 61 -102 61 C-102 54.4 -102 47.8 -102 41 C-88.29234363 40.21107014 -74.73064714 39.90722536 -61 40 C-61 33.4 -61 26.8 -61 20 C-40.87 20 -20.74 20 0 20 C0 13.4 0 6.8 0 0 Z M-19 62 C-19 68.6 -19 75.2 -19 82 C-32.53 82 -46.06 82 -60 82 C-60 88.93 -60 95.86 -60 103 C-66.93 103 -73.86 103 -81 103 C-81 109.6 -81 116.2 -81 123 C-87.6 123 -94.2 123 -101 123 C-101 129.93 -101 136.86 -101 144 C-107.93 144 -114.86 144 -122 144 C-122 157.53 -122 171.06 -122 185 C-128.6 185 -135.2 185 -142 185 C-142 231.86 -142 278.72 -142 327 C-135.4 327 -128.8 327 -122 327 C-122 340.53 -122 354.06 -122 368 C-115.07 368 -108.14 368 -101 368 C-101 374.93 -101 381.86 -101 389 C-94.4 389 -87.8 389 -81 389 C-81 395.6 -81 402.2 -81 409 C-74.07 409 -67.14 409 -60 409 C-60 415.93 -60 422.86 -60 430 C-46.47 430 -32.94 430 -19 430 C-19 436.6 -19 443.2 -19 450 C27.86 450 74.72 450 123 450 C123 443.4 123 436.8 123 430 C136.53 430 150.06 430 164 430 C164 423.07 164 416.14 164 409 C170.93 409 177.86 409 185 409 C185 402.4 185 395.8 185 389 C191.6 389 198.2 389 205 389 C205 382.07 205 375.14 205 368 C211.93 368 218.86 368 226 368 C226 354.47 226 340.94 226 327 C232.6 327 239.2 327 246 327 C246 280.14 246 233.28 246 185 C239.4 185 232.8 185 226 185 C226 171.47 226 157.94 226 144 C219.07 144 212.14 144 205 144 C205 137.07 205 130.14 205 123 C198.4 123 191.8 123 185 123 C185 116.4 185 109.8 185 103 C178.07 103 171.14 103 164 103 C164 96.07 164 89.14 164 82 C150.47 82 136.94 82 123 82 C123 75.4 123 68.8 123 62 C76.14 62 29.28 62 -19 62 Z " fill="#000000" transform="translate(204,0)"/>
<path d="M0 0 C40.92 0 81.84 0 124 0 C124 13.53 124 27.06 124 41 C130.93 41 137.86 41 145 41 C145 54.53 145 68.06 145 82 C151.27 82 157.54 82 164 82 C164 61.54 164 41.08 164 20 C170.93 20 177.86 20 185 20 C185 13.4 185 6.8 185 0 C191.93 0 198.86 0 206 0 C206 6.6 206 13.2 206 20 C212.93 20 219.86 20 227 20 C227 33.86 227 47.72 227 62 C220.07 62 213.14 62 206 62 C206 82.46 206 102.92 206 124 C199.4 124 192.8 124 186 124 C186 144.13 186 164.26 186 185 C179.07 185 172.14 185 165 185 C165 198.53 165 212.06 165 226 C151.14 226 137.28 226 123 226 C123 212.47 123 198.94 123 185 C116.4 185 109.8 185 103 185 C103 157.94 103 130.88 103 103 C96.4 103 89.8 103 83 103 C82.835 100.133125 82.67 97.26625 82.5 94.3125 C82.44779297 93.45954346 82.39558594 92.60658691 82.34179688 91.7277832 C81.81073625 81.79252393 82 72.00199585 82 62 C62.2 62 42.4 62 22 62 C22 95.66 22 129.32 22 164 C42.13 164 62.26 164 83 164 C83.020625 170.538125 83.04125 177.07625 83.0625 183.8125 C83.071604 185.83221924 83.08070801 187.85193848 83.09008789 189.93286133 C83.1197759 201.65499432 82.75031241 213.30206275 82 225 C65.50491282 226.18788198 49.01719427 226.12051923 32.4909668 226.06866455 C28.81624946 226.05826596 25.14152481 226.05383223 21.46679688 226.04882812 C14.31117888 226.03823913 7.15559692 226.020715 0 226 C0 219.4 0 212.8 0 206 C-4.33125 206.0309375 -4.33125 206.0309375 -8.75 206.0625 C-17.79021296 206.0934907 -26.78355339 205.75736261 -35.80749512 205.24024963 C-36.59325676 205.19525109 -37.3790184 205.15025255 -38.188591 205.10389042 C-38.78635597 205.06960658 -39.38412094 205.03532274 -40 205 C-41.11638198 188.18949942 -41.14890191 171.39161401 -41.1343255 154.55296326 C-41.13175035 150.63328996 -41.13415351 146.71361873 -41.13571167 142.79394531 C-41.13751859 136.21809461 -41.13516621 129.64225523 -41.13037109 123.06640625 C-41.12493136 115.52057106 -41.12669507 107.97476291 -41.1321975 100.42892838 C-41.13677111 93.88898618 -41.1373586 87.34905201 -41.13475883 80.80910873 C-41.13321921 76.92990426 -41.13293728 73.05071239 -41.13629532 69.17150879 C-41.14837913 53.09077372 -41.06608405 37.05311346 -40 21 C-38.60250227 20.91984879 -37.20499971 20.83978185 -35.80749512 20.75975037 C-35.0292614 20.71515403 -34.25102768 20.67055769 -33.44921112 20.62460995 C-22.28376369 19.99196227 -11.18265434 19.9201239 0 20 C0 13.4 0 6.8 0 0 Z " fill="#000000" transform="translate(163,143)"/>
</svg>
