<?xml version="1.0" encoding="UTF-8"?>
<svg version="1.1" xmlns="http://www.w3.org/2000/svg" width="512" height="512">
<path d="M0 0 C61.38 0 122.76 0 186 0 C186 20.13 186 40.26 186 61 C192.6 61 199.2 61 206 61 C206 67.6 206 74.2 206 81 C212.6 81 219.2 81 226 81 C226 74.4 226 67.8 226 61 C246.46 61 266.92 61 288 61 C288 67.6 288 74.2 288 81 C294.5370285 80.96041741 294.5370285 80.96041741 301.07397461 80.90991211 C302.28839233 80.90616577 302.28839233 80.90616577 303.52734375 80.90234375 C304.77632446 80.89448853 304.77632446 80.89448853 306.05053711 80.88647461 C308 81 308 81 309 82 C309.08669432 83.4887186 309.10703494 84.981445 309.09765625 86.47265625 C309.09515869 87.28226807 309.09266113 88.09187988 309.09008789 88.92602539 C309.07643188 90.47858032 309.07643188 90.47858032 309.0625 92.0625 C309.041875 95.341875 309.02125 98.62125 309 102 C315.6 102 322.2 102 329 102 C329 115.53 329 129.06 329 143 C335.6 143 342.2 143 349 143 C349 170.39 349 197.78 349 226 C342.4 226 335.8 226 329 226 C329 232.6 329 239.2 329 246 C322.4 246 315.8 246 309 246 C309 252.6 309 259.2 309 266 C315.6 266 322.2 266 329 266 C329 272.6 329 279.2 329 286 C335.6 286 342.2 286 349 286 C349 313.39 349 340.78 349 369 C342.4 369 335.8 369 329 369 C329 382.53 329 396.06 329 410 C322.4 410 315.8 410 309 410 C309.03958259 416.5370285 309.03958259 416.5370285 309.09008789 423.07397461 C309.09383423 424.28839233 309.09383423 424.28839233 309.09765625 425.52734375 C309.10551147 426.77632446 309.10551147 426.77632446 309.11352539 428.05053711 C309 430 309 430 308 431 C306.5112814 431.08669432 305.018555 431.10703494 303.52734375 431.09765625 C302.71773193 431.09515869 301.90812012 431.09266113 301.07397461 431.09008789 C300.03893799 431.08098389 299.00390137 431.07187988 297.9375 431.0625 C294.658125 431.041875 291.37875 431.02125 288 431 C288 437.6 288 444.2 288 451 C267.54 451 247.08 451 226 451 C226 444.4 226 437.8 226 431 C219.4 431 212.8 431 206 431 C206 437.6 206 444.2 206 451 C199.4 451 192.8 451 186 451 C186 471.13 186 491.26 186 512 C124.62 512 63.24 512 0 512 C0 491.87 0 471.74 0 451 C-6.6 451 -13.2 451 -20 451 C-20 444.4 -20 437.8 -20 431 C-26.6 431 -33.2 431 -40 431 C-40 437.6 -40 444.2 -40 451 C-60.46 451 -80.92 451 -102 451 C-102 444.4 -102 437.8 -102 431 C-108.5370285 431.03958259 -108.5370285 431.03958259 -115.07397461 431.09008789 C-115.88358643 431.09258545 -116.69319824 431.09508301 -117.52734375 431.09765625 C-118.35999756 431.10289307 -119.19265137 431.10812988 -120.05053711 431.11352539 C-122 431 -122 431 -123 430 C-123.08669432 428.5112814 -123.10703494 427.018555 -123.09765625 425.52734375 C-123.09515869 424.71773193 -123.09266113 423.90812012 -123.09008789 423.07397461 C-123.08098389 422.03893799 -123.07187988 421.00390137 -123.0625 419.9375 C-123.041875 416.658125 -123.02125 413.37875 -123 410 C-129.6 410 -136.2 410 -143 410 C-143 396.47 -143 382.94 -143 369 C-149.6 369 -156.2 369 -163 369 C-163 341.61 -163 314.22 -163 286 C-156.4 286 -149.8 286 -143 286 C-143 279.4 -143 272.8 -143 266 C-136.4 266 -129.8 266 -123 266 C-123 259.4 -123 252.8 -123 246 C-129.6 246 -136.2 246 -143 246 C-143 239.4 -143 232.8 -143 226 C-149.6 226 -156.2 226 -163 226 C-163 198.61 -163 171.22 -163 143 C-156.4 143 -149.8 143 -143 143 C-143 129.47 -143 115.94 -143 102 C-136.4 102 -129.8 102 -123 102 C-123.03958259 95.4629715 -123.03958259 95.4629715 -123.09008789 88.92602539 C-123.09258545 88.11641357 -123.09508301 87.30680176 -123.09765625 86.47265625 C-123.10289307 85.64000244 -123.10812988 84.80734863 -123.11352539 83.94946289 C-123 82 -123 82 -122 81 C-120.5112814 80.91330568 -119.018555 80.89296506 -117.52734375 80.90234375 C-116.71773193 80.90484131 -115.90812012 80.90733887 -115.07397461 80.90991211 C-114.03893799 80.91901611 -113.00390137 80.92812012 -111.9375 80.9375 C-108.658125 80.958125 -105.37875 80.97875 -102 81 C-102 74.4 -102 67.8 -102 61 C-81.54 61 -61.08 61 -40 61 C-40 67.6 -40 74.2 -40 81 C-33.4 81 -26.8 81 -20 81 C-20 74.4 -20 67.8 -20 61 C-13.4 61 -6.8 61 0 61 C0 40.87 0 20.74 0 0 Z M63 41 C63 54.53 63 68.06 63 82 C56.07 82 49.14 82 42 82 C42 95.53 42 109.06 42 123 C28.47 123 14.94 123 1 123 C1 129.93 1 136.86 1 144 C-12.86 144 -26.72 144 -41 144 C-41 137.07 -41 130.14 -41 123 C-47.6 123 -54.2 123 -61 123 C-61 129.6 -61 136.2 -61 143 C-67.6 143 -74.2 143 -81 143 C-81 149.93 -81 156.86 -81 164 C-87.6 164 -94.2 164 -101 164 C-101 170.6 -101 177.2 -101 184 C-94.4 184 -87.8 184 -81 184 C-81 190.6 -81 197.2 -81 204 C-74.07 204 -67.14 204 -60 204 C-60 238.32 -60 272.64 -60 308 C-66.93 308 -73.86 308 -81 308 C-81 314.6 -81 321.2 -81 328 C-87.6 328 -94.2 328 -101 328 C-101 334.6 -101 341.2 -101 348 C-94.4 348 -87.8 348 -81 348 C-81 354.93 -81 361.86 -81 369 C-74.4 369 -67.8 369 -61 369 C-61 375.6 -61 382.2 -61 389 C-54.4 389 -47.8 389 -41 389 C-41 382.07 -41 375.14 -41 368 C-27.14 368 -13.28 368 1 368 C1 374.93 1 381.86 1 389 C14.53 389 28.06 389 42 389 C42 402.53 42 416.06 42 430 C48.93 430 55.86 430 63 430 C63 443.53 63 457.06 63 471 C82.8 471 102.6 471 123 471 C123 457.47 123 443.94 123 430 C129.93 430 136.86 430 144 430 C144 416.47 144 402.94 144 389 C157.53 389 171.06 389 185 389 C185 382.07 185 375.14 185 368 C198.86 368 212.72 368 227 368 C227 374.93 227 381.86 227 389 C233.6 389 240.2 389 247 389 C247 382.4 247 375.8 247 369 C253.6 369 260.2 369 267 369 C267 362.07 267 355.14 267 348 C273.6 348 280.2 348 287 348 C287 341.4 287 334.8 287 328 C280.4 328 273.8 328 267 328 C267 321.4 267 314.8 267 308 C260.07 308 253.14 308 246 308 C246 273.68 246 239.36 246 204 C252.93 204 259.86 204 267 204 C267 197.4 267 190.8 267 184 C273.6 184 280.2 184 287 184 C287 177.4 287 170.8 287 164 C280.4 164 273.8 164 267 164 C267 157.07 267 150.14 267 143 C260.4 143 253.8 143 247 143 C247 136.4 247 129.8 247 123 C240.4 123 233.8 123 227 123 C227 129.93 227 136.86 227 144 C213.14 144 199.28 144 185 144 C185 137.07 185 130.14 185 123 C171.47 123 157.94 123 144 123 C144 109.47 144 95.94 144 82 C137.07 82 130.14 82 123 82 C123 68.47 123 54.94 123 41 C103.2 41 83.4 41 63 41 Z " fill="#000000" transform="translate(163,0)"/>
<path d="M0 0 C33.66 0 67.32 0 102 0 C102 6.6 102 13.2 102 20 C108.93 20 115.86 20 123 20 C123 26.93 123 33.86 123 41 C129.93 41 136.86 41 144 41 C144 47.93 144 54.86 144 62 C150.6 62 157.2 62 164 62 C164 95.66 164 129.32 164 164 C157.4 164 150.8 164 144 164 C144 170.93 144 177.86 144 185 C137.07 185 130.14 185 123 185 C123 191.93 123 198.86 123 206 C116.07 206 109.14 206 102 206 C102 212.6 102 219.2 102 226 C68.34 226 34.68 226 0 226 C0 219.4 0 212.8 0 206 C-6.93 206 -13.86 206 -21 206 C-21 199.07 -21 192.14 -21 185 C-27.93 185 -34.86 185 -42 185 C-42 178.07 -42 171.14 -42 164 C-48.6 164 -55.2 164 -62 164 C-62 130.34 -62 96.68 -62 62 C-55.4 62 -48.8 62 -42 62 C-42 55.07 -42 48.14 -42 41 C-35.07 41 -28.14 41 -21 41 C-21 34.07 -21 27.14 -21 20 C-14.07 20 -7.14 20 0 20 C0 13.4 0 6.8 0 0 Z M21 62 C21 68.93 21 75.86 21 83 C14.07 83 7.14 83 0 83 C0 102.8 0 122.6 0 143 C15.91547706 143.84546559 15.91547706 143.84546559 31.8125 144.0625 C34.514375 144.041875 37.21625 144.02125 40 144 C40 150.6 40 157.2 40 164 C53.53 164 67.06 164 81 164 C81.71792718 150.62860634 82.10220701 137.38911864 82 124 C88.6 124 95.2 124 102 124 C102 110.47 102 96.94 102 83 C95.07 83 88.14 83 81 83 C81 76.07 81 69.14 81 62 C61.2 62 41.4 62 21 62 Z " fill="#000000" transform="translate(205,143)"/>
</svg>
