<?xml version="1.0" encoding="UTF-8"?>
<svg version="1.1" xmlns="http://www.w3.org/2000/svg" width="512" height="512">
<path d="M0 0 C1.59272232 0.00323273 1.59272232 0.00323273 3.21762085 0.00653076 C18.46689768 0.0562256 33.37182021 0.32927279 48.375 3.3125 C49.45394531 3.52181152 50.53289062 3.73112305 51.64453125 3.94677734 C66.18535041 6.82923771 80.37724278 10.43713544 94.375 15.3125 C95.01808105 15.5280957 95.66116211 15.74369141 96.32373047 15.96582031 C127.52319266 26.45425299 155.67082946 43.78840561 180.375 65.3125 C181.07882812 65.90417969 181.78265625 66.49585937 182.5078125 67.10546875 C192.79648454 75.82285824 202.1836251 85.60948402 210.375 96.3125 C211.02033691 97.15119629 211.02033691 97.15119629 211.67871094 98.00683594 C218.60779478 107.06037983 224.75698199 116.39604496 230.375 126.3125 C230.7162793 126.90466309 231.05755859 127.49682617 231.40917969 128.10693359 C241.32281389 145.39650138 247.95359975 163.91152868 252.375 183.3125 C252.69259277 184.68825195 252.69259277 184.68825195 253.01660156 186.09179688 C262.56730905 229.47108003 257.50806403 283.04037787 234.08325195 321.42944336 C230.78919926 326.23682811 227.95376366 328.75926926 222.375 330.3125 C215.86031307 331.16300422 209.83234541 331.02199316 204.0625 327.65625 C200.24459529 324.61606662 197.90442571 320.90077714 196.375 316.3125 C195.4129521 307.18691631 197.37794437 300.39170617 201.0625 292.125 C201.98987055 289.92548607 202.91174979 287.72364879 203.828125 285.51953125 C204.27091797 284.45814941 204.71371094 283.39676758 205.16992188 282.30322266 C212.16416038 264.94515505 214.97737866 246.74108827 214.8125 228.125 C214.80879395 227.3662558 214.80508789 226.6075116 214.80126953 225.82577515 C214.61131327 198.34723418 207.7713839 172.38794854 194.375 148.3125 C193.81167969 147.27351562 193.24835938 146.23453125 192.66796875 145.1640625 C186.46436464 134.0934622 179.1173821 123.82988239 170.4609375 114.55078125 C168.51055617 112.45795634 166.65868633 110.30951459 164.8125 108.125 C161.9809801 104.88713442 158.98378341 102.03909895 155.6953125 99.26953125 C153.9981313 97.83807033 152.32998538 96.37198684 150.6796875 94.88671875 C130.66953022 77.0487167 106.45514872 64.39660895 81.375 55.3125 C80.60752441 55.03422363 79.84004883 54.75594727 79.04931641 54.46923828 C65.49414036 49.65858788 51.54445059 46.69015006 37.375 44.3125 C36.26809814 44.12413574 35.16119629 43.93577148 34.02075195 43.74169922 C23.03862944 42.06527945 12.15261938 41.91514303 1.0625 41.9375 C0.09311493 41.93771149 -0.87627014 41.93792297 -1.87503052 41.93814087 C-17.48071314 41.97205404 -32.33484287 42.98347627 -47.625 46.3125 C-48.5413623 46.49973633 -49.45772461 46.68697266 -50.40185547 46.87988281 C-88.70034294 54.75306735 -124.44787334 72.28096249 -153.625 98.3125 C-154.17816895 98.7986377 -154.73133789 99.28477539 -155.30126953 99.78564453 C-162.84675522 106.43095183 -169.51185702 113.28970608 -175.625 121.3125 C-176.37394531 122.26898438 -177.12289062 123.22546875 -177.89453125 124.2109375 C-194.40198645 145.63969535 -206.46384926 170.66676532 -211.625 197.3125 C-211.80232666 198.22459229 -211.97965332 199.13668457 -212.16235352 200.07641602 C-213.76515943 209.24600661 -213.98398796 218.22304179 -213.9375 227.5 C-213.93534485 228.27418274 -213.9331897 229.04836548 -213.93096924 229.8460083 C-213.88000597 241.25323704 -213.45939724 252.22138038 -210.625 263.3125 C-210.43164062 264.116875 -210.23828125 264.92125 -210.0390625 265.75 C-203.4543137 292.73934075 -190.53655532 317.03975894 -172.6875 338.25 C-167.68108416 344.31784676 -164.83666002 349.3056434 -165.171875 357.38671875 C-167.36248702 371.53127396 -175.50469537 385.41391733 -181.21484375 398.4765625 C-184.97963758 407.09171449 -188.63945171 415.74963962 -192.28588867 424.41552734 C-192.71232666 425.42824707 -193.13876465 426.4409668 -193.578125 427.484375 C-193.95098633 428.3722168 -194.32384766 429.26005859 -194.70800781 430.17480469 C-195.30725289 431.57176685 -195.94520622 432.95291243 -196.625 434.3125 C-196.03001709 434.04735596 -195.43503418 433.78221191 -194.82202148 433.5090332 C-180.93461474 427.3320263 -166.9971914 421.29014532 -152.95996094 415.46142578 C-151.63994926 414.91314539 -150.31996262 414.36480472 -149 413.81640625 C-148.33478333 413.54014404 -147.66956665 413.26388184 -146.98419189 412.97924805 C-142.45936219 411.09391352 -137.95440115 409.16608692 -133.45707703 407.21609497 C-130.20671578 405.80890435 -126.9504448 404.41570522 -123.69351196 403.02380371 C-122.12367284 402.34879361 -120.55650612 401.66752935 -118.99227905 400.97961426 C-104.97003572 394.81894151 -96.99335354 393.97020188 -82.36553955 399.30123901 C-69.01038229 404.14142129 -55.64616867 407.93590446 -41.625 410.3125 C-40.71782227 410.46799316 -39.81064453 410.62348633 -38.87597656 410.78369141 C-28.80928323 412.43312673 -18.80376634 413.35573929 -8.609375 413.57421875 C-7.82705505 413.59149017 -7.04473511 413.6087616 -6.2387085 413.6265564 C-2.34313334 413.70558358 1.54991827 413.7539499 5.44628906 413.75878906 C14.08575084 413.8238069 20.63775629 414.13257908 27.43359375 420.12890625 C27.88863281 420.70511719 28.34367187 421.28132813 28.8125 421.875 C29.28558594 422.45378906 29.75867188 423.03257812 30.24609375 423.62890625 C33.66336401 428.72525048 32.97671788 435.46822863 32.375 441.3125 C30.2722146 447.24367496 25.9030922 451.43096648 20.375 454.3125 C-10.76773959 464.48798616 -60.47443156 451.99413546 -89.66333008 441.40917969 C-90.48341553 441.12075195 -91.30350098 440.83232422 -92.1484375 440.53515625 C-92.84888184 440.27484619 -93.54932617 440.01453613 -94.27099609 439.74633789 C-100.05729431 438.67993549 -105.15312609 440.72591353 -110.3828125 443.0234375 C-111.34848396 443.44273277 -111.34848396 443.44273277 -112.33366394 443.87049866 C-113.73573902 444.48028372 -115.13615352 445.09389817 -116.5350647 445.71090698 C-119.60890639 447.0662027 -122.69112783 448.40194385 -125.77296448 449.73893738 C-127.43647198 450.4607032 -129.09957963 451.18339119 -130.76231384 451.90693665 C-140.78790453 456.2654631 -150.86279986 460.50655636 -160.9375 464.75 C-162.83962639 465.55185706 -164.74172599 466.35377766 -166.64379883 467.15576172 C-170.43157668 468.75265445 -174.21962229 470.34890997 -178.0078125 471.94482422 C-182.65627548 473.90356295 -187.30331516 475.86565136 -191.94978333 477.82911682 C-195.45150396 479.30866787 -198.95377071 480.78692306 -202.45614624 482.2649231 C-204.08968615 482.9545703 -205.72301306 483.64472228 -207.35610962 484.3354187 C-209.60787149 485.28760989 -211.86047277 486.23778819 -214.11328125 487.1875 C-214.76022949 487.46163223 -215.40717773 487.73576447 -216.07373047 488.01820374 C-225.75612418 492.09282506 -234.59024206 495.74268911 -245.0625 492.125 C-250.7513727 488.10116322 -254.71422484 483.95127854 -256.0859375 476.96484375 C-256.65343231 470.00814016 -254.80651387 464.5640603 -252.171875 458.2734375 C-251.8158873 457.40446838 -251.4598996 456.53549927 -251.09312439 455.64019775 C-249.94879837 452.8592654 -248.7893341 450.0851101 -247.625 447.3125 C-247.25146393 446.42085144 -246.87792786 445.52920288 -246.49307251 444.61053467 C-244.16403236 439.06341047 -241.80818139 433.52801103 -239.44171143 427.99676514 C-238.15311089 424.98204564 -236.86970725 421.96515617 -235.58740234 418.94775391 C-231.67523756 409.74961889 -227.74632207 400.56021184 -223.73002625 391.40698242 C-222.10993182 387.71172877 -220.5020367 384.01122939 -218.89523315 380.31018066 C-218.13563291 378.57063195 -217.36967666 376.83384401 -216.59719849 375.09997559 C-215.53091413 372.70596368 -214.48602226 370.30365269 -213.4453125 367.8984375 C-212.96729942 366.84857162 -212.96729942 366.84857162 -212.47962952 365.77749634 C-211.15285775 362.65826805 -210.49462012 360.82865962 -211.33764648 357.49121094 C-212.88912925 354.86548893 -214.64763106 352.56290704 -216.5625 350.1875 C-235.67101649 325.52007092 -248.5240285 293.97912724 -253.625 263.3125 C-253.88772705 261.73758789 -253.88772705 261.73758789 -254.15576172 260.13085938 C-255.72478067 249.71178972 -256.02466887 239.45765118 -256 228.9375 C-255.99945618 228.06087708 -255.99891235 227.18425415 -255.99835205 226.28106689 C-255.9567579 211.64358584 -254.92190882 197.61691227 -251.625 183.3125 C-251.42132813 182.39484863 -251.21765625 181.47719727 -251.0078125 180.53173828 C-240.01500535 132.277047 -209.71149625 87.4576409 -170.625 57.3125 C-170.0789209 56.89000977 -169.5328418 56.46751953 -168.97021484 56.03222656 C-134.31256153 29.39942982 -94.42392003 12.39320741 -51.625 4 C-50.87436279 3.85256348 -50.12372559 3.70512695 -49.3503418 3.55322266 C-32.93275174 0.56438383 -16.64981533 -0.06081857 0 0 Z " fill="#000000" transform="translate(255.625,-0.3125)"/>
<path d="M0 0 C1.73310922 0.48489831 3.46657102 0.96853801 5.20036316 1.45098877 C8.81131625 2.45955387 12.41887755 3.47919954 16.02416992 4.5078125 C20.62671785 5.82058214 25.23511681 7.1111672 29.84601307 8.39426804 C33.41766312 9.38968434 36.9868463 10.39370754 40.55527306 11.40061188 C42.253467 11.87932092 43.95220147 12.35611705 45.65149879 12.83089447 C48.02895961 13.49720837 50.40308647 14.17430925 52.77661133 14.85449219 C53.46613388 15.04582733 54.15565643 15.23716248 54.86607361 15.43429565 C56.84579404 16.00871838 58.78690431 16.64151871 60.73046875 17.328125 C61.3471706 17.54557027 61.96387245 17.76301554 62.59926224 17.98705006 C69.75030745 21.01914444 74.82233653 26.86672596 80.19189453 32.2878418 C81.32534893 33.41750828 82.45966018 34.54631559 83.59475708 35.67433167 C86.66173101 38.72739324 89.71605794 41.79281932 92.76780558 44.86109138 C95.97243318 48.07962049 99.18726231 51.28793253 102.40060425 54.49775696 C107.79574744 59.89020148 113.18276519 65.29065997 118.56494141 70.69604492 C124.77336355 76.93105427 130.99409867 83.15356409 137.22169888 89.36941403 C143.22800873 95.36491456 149.22575811 101.36890859 155.21960068 107.37687111 C157.76299158 109.92599651 160.30924371 112.47221125 162.85788345 115.01608849 C165.86405573 118.01746048 168.86259787 121.02626046 171.85560226 124.04076195 C172.95026023 125.14094733 174.04742003 126.23865048 175.14735413 127.33356094 C183.10394562 135.25838274 189.95470766 142.85183998 193.54296875 153.640625 C193.94128906 154.81238281 194.33960938 155.98414063 194.75 157.19140625 C198.93862758 170.59167696 198.2822213 186.44144109 192.73046875 199.328125 C192.40304687 200.18019531 192.075625 201.03226563 191.73828125 201.91015625 C185.2100367 217.03948212 171.11632154 227.08876257 156.421875 233.3046875 C142.90298263 237.93355625 125.75456764 236.93907773 112.73046875 231.328125 C111.87839844 231.00070312 111.02632812 230.67328125 110.1484375 230.3359375 C105.0098172 228.11864307 101.18532407 225.10838848 97.09300232 221.30856323 C96.30856913 220.58059392 96.30856913 220.58059392 95.5082888 219.83791816 C90.22366893 214.90665701 85.09306314 209.82434962 79.99243164 204.70361328 C78.98422414 203.69512259 77.97579419 202.68685425 76.96716309 201.67878723 C74.26910111 198.9810083 71.57410085 196.2801906 68.87970281 193.57875299 C66.04251269 190.73523777 63.20241948 187.8946249 60.36265564 185.05368042 C54.99793535 179.68587034 49.63576452 174.31552115 44.27454227 168.94421756 C38.18390894 162.84237992 32.09041477 156.7434026 25.99668133 150.64466119 C15.58083897 140.2201623 5.16712179 129.79354458 -5.24421692 119.36454773 C-6.10040619 118.5069133 -6.95659546 117.64927887 -7.83872986 116.76565552 C-9.00925179 115.59297434 -9.00925179 115.59297434 -10.20342064 114.39660263 C-11.89469999 112.70338568 -13.58798729 111.01222817 -15.28236389 109.32211304 C-19.84482335 104.74399356 -21.40046274 100.46069809 -23.23828125 94.359375 C-23.51533905 93.46319458 -23.79239685 92.56701416 -24.07785034 91.64367676 C-24.98332066 88.70761936 -25.87700906 85.76814217 -26.76953125 82.828125 C-27.39095634 80.79542536 -28.01286815 78.76287445 -28.63525391 76.73046875 C-29.58455792 73.6295133 -30.53299726 70.52831419 -31.47793579 67.42602539 C-33.22237458 61.70689382 -34.99920041 56.00025466 -36.82940674 50.3079834 C-37.86915081 47.07390534 -38.89549254 43.83564926 -39.9206543 40.59692383 C-40.39661463 39.10515339 -40.87870503 37.61532246 -41.36743164 36.12768555 C-44.60963444 26.24071742 -47.55768363 16.07215307 -44.08203125 5.828125 C-32.52769041 -10.10889685 -16.23296269 -4.65703866 0 0 Z M5.73046875 45.328125 C7.33337405 52.93582275 9.29908281 60.41099861 11.41796875 67.890625 C11.73185547 69.07076172 12.04574219 70.25089844 12.36914062 71.46679688 C12.69849609 72.61857422 13.02785156 73.77035156 13.3671875 74.95703125 C13.79584106 76.5049939 13.79584106 76.5049939 14.2331543 78.08422852 C17.5480489 85.26586957 24.11470962 90.8591386 29.67553711 96.38671875 C30.33004852 97.04137619 30.98455994 97.69603363 31.65890503 98.37052917 C33.79367564 100.50461067 35.9319515 102.63514165 38.0703125 104.765625 C39.56268353 106.25612828 41.05483195 107.74685448 42.54676819 109.23779297 C46.45222288 113.13945054 50.36067254 117.0380942 54.26977539 120.93609619 C58.26696673 124.92301276 62.26128814 128.91280236 66.25585938 132.90234375 C74.07793917 140.71373577 81.90318923 148.52194353 89.73046875 156.328125 C90.84128187 155.38349112 91.95102224 154.4375957 93.06031799 153.49118042 C93.67842126 152.96457258 94.29652452 152.43796474 94.93335819 151.89539909 C97.39679977 149.74701253 99.70411642 147.46644225 102.0078125 145.1484375 C102.93271484 144.2203125 103.85761719 143.2921875 104.81054688 142.3359375 C105.76307724 141.37505591 106.71555053 140.41411774 107.66796875 139.453125 C108.64755112 138.46851581 109.62736712 137.484139 110.60742188 136.5 C112.98407127 134.11164297 115.35834231 131.72097288 117.73046875 129.328125 C113.7536841 124.60168585 109.6493728 120.040956 105.37158203 115.5859375 C104.46249084 114.63566681 104.46249084 114.63566681 103.53503418 113.66619873 C97.94932548 107.84087936 92.31515035 102.06284732 86.6651783 96.29989624 C82.88862271 92.44615307 79.12994879 88.57808324 75.40966797 84.66992188 C53.71328726 60.57891858 53.71328726 60.57891858 24.19952393 49.65013123 C20.11394321 49.11730294 16.1984816 47.97214001 12.23046875 46.890625 C10.06503915 46.36467208 7.89890654 45.84153454 5.73046875 45.328125 Z M146.73046875 158.328125 C137.82046875 167.238125 128.91046875 176.148125 119.73046875 185.328125 C124.00729781 190.67416132 126.84947416 193.69570666 133.53515625 194.78515625 C140.14103377 195.1465465 144.63630787 194.18592144 149.8828125 190.08203125 C154.58057134 185.62263649 155.96747364 181.95823454 156.35546875 175.453125 C156.15727145 169.14252308 153.97384874 164.93286338 149.73046875 160.328125 C148.74046875 159.668125 147.75046875 159.008125 146.73046875 158.328125 Z " fill="#000000" transform="translate(315.26953125,276.671875)"/>
<path d="M0 0 C4.89872999 2.85759249 7.79346527 7.1303958 9.5625 12.4375 C10.22384489 19.75566066 10.30340673 26.48380318 5.5625 32.4375 C-0.31091297 37.77696633 -5.52093201 38.80560469 -13.359375 38.7109375 C-18.60956546 38.24455002 -22.43333677 36.64207956 -26 32.71875 C-30.78040344 26.30866357 -31.13555921 20.29565224 -30.4375 12.4375 C-28.90478311 6.78676061 -25.94904415 3.51969493 -21.12109375 0.34765625 C-14.98998289 -2.96684219 -6.30251123 -2.81448021 0 0 Z " fill="#000000" transform="translate(355.4375,203.5625)"/>
<path d="M0 0 C4.89872999 2.85759249 7.79346527 7.1303958 9.5625 12.4375 C10.22384489 19.75566066 10.30340673 26.48380318 5.5625 32.4375 C-0.31091297 37.77696633 -5.52093201 38.80560469 -13.359375 38.7109375 C-18.60956546 38.24455002 -22.43333677 36.64207956 -26 32.71875 C-30.78040344 26.30866357 -31.13555921 20.29565224 -30.4375 12.4375 C-28.90478311 6.78676061 -25.94904415 3.51969493 -21.12109375 0.34765625 C-14.98998289 -2.96684219 -6.30251123 -2.81448021 0 0 Z " fill="#000000" transform="translate(265.4375,203.5625)"/>
<path d="M0 0 C4.89872999 2.85759249 7.79346527 7.1303958 9.5625 12.4375 C10.22384489 19.75566066 10.30340673 26.48380318 5.5625 32.4375 C-0.31091297 37.77696633 -5.52093201 38.80560469 -13.359375 38.7109375 C-18.60956546 38.24455002 -22.43333677 36.64207956 -26 32.71875 C-30.78040344 26.30866357 -31.13555921 20.29565224 -30.4375 12.4375 C-28.90478311 6.78676061 -25.94904415 3.51969493 -21.12109375 0.34765625 C-14.98998289 -2.96684219 -6.30251123 -2.81448021 0 0 Z " fill="#000000" transform="translate(175.4375,203.5625)"/>
</svg>
