<?xml version="1.0" encoding="UTF-8"?>
<svg version="1.1" xmlns="http://www.w3.org/2000/svg" width="512" height="512">
<path d="M0 0 C1.27778179 -0.00297112 2.55556357 -0.00594224 3.87206602 -0.0090034 C7.40319965 -0.01703092 10.93431291 -0.01886059 14.46545458 -0.01960087 C18.28024872 -0.02145889 22.09503247 -0.02901 25.90982056 -0.03573608 C34.2448646 -0.04929019 42.57990382 -0.0553397 50.91495705 -0.05974674 C56.12534817 -0.06251439 61.33573745 -0.06675271 66.54612732 -0.07125092 C80.98894382 -0.08344028 95.43175885 -0.09373991 109.87458038 -0.09712601 C110.79810436 -0.09734557 111.72162833 -0.09756514 112.67313787 -0.09779136 C114.06163015 -0.09811878 114.06163015 -0.09811878 115.47817278 -0.09845281 C117.35373465 -0.09889626 119.22929653 -0.09934283 121.1048584 -0.09979248 C122.03519046 -0.10001391 122.96552252 -0.10023534 123.92404646 -0.10046348 C138.98622437 -0.10440838 154.04835382 -0.12185449 169.11051303 -0.145152 C184.59653542 -0.16891057 200.08253353 -0.18132992 215.56857443 -0.18249393 C224.25450883 -0.18340821 232.94038007 -0.18909806 241.626297 -0.20731354 C249.02501238 -0.22277554 256.42364509 -0.22779926 263.82237357 -0.21957543 C267.5914696 -0.21569026 271.36039946 -0.21649297 275.12947464 -0.23063278 C305.17756373 -0.33676267 332.28259817 2.87664754 354.66247559 24.89044189 C374.2045539 44.97838832 379.69718474 68.77741282 379.62902832 96.10455322 C379.63474154 98.18738672 379.64170945 100.27021709 379.64982605 102.3530426 C379.66766868 107.97305618 379.66660572 113.59291286 379.66088367 119.21294618 C379.65777848 123.92175456 379.66389909 128.63053337 379.66992241 133.33933753 C379.68393724 144.4573905 379.6824321 155.57536659 379.67102051 166.69342041 C379.65954601 178.12464411 379.67361085 189.555633 379.70041698 200.98682576 C379.72264214 210.83699046 379.72919593 220.68708181 379.72334057 230.53726977 C379.71998563 236.40457613 379.72228801 242.27173208 379.7395916 248.13901711 C379.75516736 253.66073407 379.75098822 259.18210588 379.73228645 264.70380974 C379.72862964 266.7172146 379.7316229 268.73064564 379.74217224 270.74402618 C379.87114173 297.41798016 373.01331971 320.41023324 353.97497559 339.95294189 C348.00438854 345.85527366 341.6710512 350.21160803 334.22497559 354.14044189 C333.32263184 354.61997314 332.42028809 355.09950439 331.49060059 355.59356689 C317.50340663 362.46301718 302.91107778 364.29218515 287.53260803 364.28088379 C286.26369892 364.28385491 284.9947898 364.28682603 283.68742889 364.28988719 C280.18102899 364.2979142 276.67464962 364.29974435 273.16824162 364.30048466 C269.38001343 364.30234279 265.5917957 364.30989399 261.80357361 364.31661987 C253.52631183 364.33017399 245.24905491 364.3362236 236.97178388 364.34063053 C231.79689701 364.34339839 226.622012 364.34763677 221.44712639 364.3521347 C207.10124739 364.36432447 192.75536988 364.37462377 178.40948582 364.3780098 C177.49214863 364.37822936 176.57481144 364.37844893 175.62967616 364.37867515 C174.71022 364.37889343 173.79076383 364.3791117 172.84344536 364.3793366 C170.98046911 364.37978005 169.11749285 364.38022661 167.2545166 364.38067627 C166.33042808 364.3808977 165.40633956 364.38111913 164.45424836 364.38134727 C149.49621027 364.38529139 134.538221 364.40273495 119.58020175 364.42603579 C104.19926568 364.44980069 88.81835405 364.46221401 73.43739933 364.46337771 C64.81123661 364.46429169 56.18513749 364.46997355 47.55899239 364.48819733 C40.21044443 364.50366796 32.86197973 364.50867807 25.51341856 364.50045922 C21.77052665 364.49657695 18.02780205 364.49736216 14.28493118 364.51151657 C-17.35549672 364.62410432 -43.45791832 360.63803406 -67.27502441 338.07794189 C-86.32970264 318.54356548 -91.25054723 294.60337743 -91.16320801 268.12872314 C-91.16728084 266.04102302 -91.1726267 263.95332505 -91.17913818 261.8656311 C-91.19273287 256.23341387 -91.18754571 250.60136279 -91.17800093 244.96914291 C-91.17036346 239.05268685 -91.17746123 233.13624427 -91.18215942 227.2197876 C-91.18760512 217.28738878 -91.18045654 207.35505707 -91.1661377 197.42266846 C-91.14981352 185.96756138 -91.15510287 174.51261453 -91.17161691 163.05751133 C-91.18526563 153.19210986 -91.18713491 143.3267564 -91.1793009 133.46134853 C-91.17464298 127.58243117 -91.17394752 121.70358894 -91.18391037 115.82467651 C-91.19262716 110.29562569 -91.18647256 104.76677987 -91.1692276 99.23775101 C-91.16528781 97.21825118 -91.16635334 95.19873386 -91.17301559 93.17924118 C-91.25321187 66.38297219 -84.61817872 44.8647509 -65.77502441 25.14044189 C-65.22330566 24.51395752 -64.67158691 23.88747314 -64.10314941 23.24200439 C-47.83927942 5.44836445 -23.0148574 -0.01679265 0 0 Z M-28.77502441 51.14044189 C-25.2673646 54.7777749 -21.59219722 57.99211773 -17.58752441 61.07794189 C-16.98585449 61.54611328 -16.38418457 62.01428467 -15.76428223 62.49664307 C-14.45797817 63.51252833 -13.15047996 64.52687954 -11.84191895 65.53985596 C-9.72171466 67.18172453 -7.60533957 68.82841811 -5.48986816 70.47637939 C-1.69187676 73.434378 2.10891435 76.38875369 5.91052246 79.34210205 C9.68313192 82.27343552 13.45397914 85.20703387 17.22497559 88.14044189 C18.72496682 89.30711983 20.22496683 90.47378649 21.72497559 91.64044189 C66.72497559 126.64044189 66.72497559 126.64044189 68.97595215 128.39141846 C70.47241642 129.55519072 71.96916022 130.71860364 73.46618652 131.88165283 C77.27268357 134.83968384 81.07375987 137.80426499 84.86560059 140.78106689 C89.30007658 144.25864689 93.75172563 147.71287311 98.22497559 151.14044189 C98.86451172 151.63093018 99.50404785 152.12141846 100.16296387 152.62677002 C118.21609301 166.35153857 135.17009019 171.32742306 157.66247559 168.74591064 C172.01127182 165.72408535 183.48318539 156.78922946 194.45788574 147.60137939 C197.09907146 145.41778513 199.81267491 143.34408532 202.53747559 141.26544189 C203.60288018 140.45073045 204.66797555 139.6356145 205.73278809 138.82012939 C206.28869629 138.3944165 206.84460449 137.96870361 207.4173584 137.53009033 C210.92727278 134.83176069 214.41901987 132.11002374 217.91247559 129.39044189 C218.67406982 128.79763428 219.43566406 128.20482666 220.22033691 127.59405518 C221.77843364 126.38109509 223.33645722 125.16804104 224.89440918 123.95489502 C228.67014825 121.01530852 232.44763094 118.07796474 236.22497559 115.14044189 C237.72498435 113.9737865 239.22498435 112.80711982 240.72497559 111.64044189 C263.22497559 94.14044189 263.22497559 94.14044189 285.72497559 76.64044189 C286.46892578 76.06181396 287.21287598 75.48318604 287.97937012 74.88702393 C290.95153809 72.57533773 293.92370605 70.26365153 296.89587402 67.95196533 C297.66447754 67.3541626 298.43308105 66.75635986 299.22497559 66.14044189 C300.93591309 64.80971273 302.64685059 63.47898356 304.35778809 62.14825439 C305.61075684 61.17372314 305.61075684 61.17372314 306.88903809 60.17950439 C310.40466309 57.44512939 310.40466309 57.44512939 313.92028809 54.71075439 C314.87959229 53.96462891 314.87959229 53.96462891 315.85827637 53.20343018 C316.30928711 52.85264404 316.76029785 52.50185791 317.22497559 52.14044189 C314.90183748 49.71626178 312.94534824 48.35712219 309.84997559 47.01544189 C308.72462402 46.51657471 308.72462402 46.51657471 307.57653809 46.00762939 C303.3110233 44.43463225 299.29189833 44.01501406 294.76504993 44.00901413 C293.67444226 44.00517298 292.58383459 44.00133184 291.4601782 43.9973743 C290.26758773 43.99824078 289.07499727 43.99910726 287.8462677 44 C286.5749829 43.99702888 285.3036981 43.99405776 283.99388951 43.9909966 C280.46719731 43.98293888 276.94052547 43.98113771 273.41382515 43.98039913 C269.60931804 43.97854643 265.80482145 43.97099799 262.00032043 43.96426392 C253.68203 43.9506887 245.36374439 43.94465711 237.04544473 43.94025326 C231.85002493 43.93748941 226.654607 43.93325179 221.45918846 43.92874908 C207.07052509 43.91655738 192.6818632 43.90625793 178.29319477 43.90287399 C177.37249129 43.90265443 176.4517878 43.90243486 175.50318421 43.90220864 C174.58029553 43.90199036 173.65740685 43.90177209 172.70655185 43.90154719 C170.83647239 43.90110373 168.96639293 43.90065717 167.09631348 43.90020752 C165.70488168 43.89987537 165.70488168 43.89987537 164.28534015 43.89953652 C149.25771725 43.89558929 134.23014287 43.87813713 119.20253871 43.854848 C103.76862083 43.83112254 88.33472728 43.81867159 72.90079087 43.81750607 C64.23735962 43.81658998 55.57399159 43.81085409 46.91057777 43.79268646 C39.53284479 43.77726934 32.15519455 43.77217451 24.77744851 43.78042457 C21.01519249 43.7843254 17.25310303 43.78342933 13.49086761 43.76936722 C9.4066593 43.75424167 5.32282462 43.76251154 1.23860168 43.77294922 C0.05716483 43.76489281 -1.12427203 43.75683641 -2.34151 43.74853587 C-12.34635877 43.80827457 -20.30847277 45.80283325 -28.77502441 51.14044189 Z M-47.77502441 93.14044189 C-47.82181912 117.03691731 -47.85704982 140.93338582 -47.87864876 164.82989788 C-47.88894567 175.92634809 -47.90297562 187.02276977 -47.92590332 198.11920166 C-47.94588581 207.79486623 -47.95875237 217.47051013 -47.9632014 227.14619476 C-47.96580056 232.26572436 -47.97187653 237.38519484 -47.98648453 242.50470543 C-48.00014531 247.33175045 -48.00423001 252.15871248 -48.00123978 256.98577499 C-48.00178616 258.74929443 -48.00571266 260.51281689 -48.01343536 262.2763195 C-48.08837489 280.28528185 -47.20872584 295.18894304 -34.22814941 308.87872314 C-23.92494805 318.3780123 -12.41547534 320.59876816 1.20495605 320.52139282 C3.11829144 320.52841278 3.11829144 320.52841278 5.07028008 320.53557456 C8.58575334 320.54802505 12.10098031 320.5419416 15.61645412 320.5326159 C19.41747592 320.52580115 23.21845669 320.53631861 27.01947021 320.54455566 C34.45575913 320.55786941 41.89195702 320.5550258 49.32824945 320.54631774 C55.37389019 320.5395323 61.41950547 320.53862819 67.46514893 320.54188919 C68.3268195 320.54234889 69.18849008 320.54280859 70.07627189 320.54328222 C71.82694325 320.54424143 73.57761459 320.54521407 75.32828593 320.54619999 C91.72995686 320.55474698 108.13157742 320.54493061 124.53324008 320.52879889 C138.59522401 320.51539634 152.65713363 320.51772463 166.71911621 320.53155518 C183.0635939 320.54762321 199.40802749 320.55392307 215.75251198 320.54471838 C217.49660873 320.54376277 219.24070548 320.54281966 220.98480225 320.54188919 C222.27187035 320.54119495 222.27187035 320.54119495 223.58493984 320.54048669 C229.62070393 320.53790047 235.65643996 320.54225984 241.69219971 320.54932785 C249.05152498 320.55775665 256.41075431 320.55543375 263.77006865 320.53948562 C267.5222244 320.53162143 271.27422038 320.52847952 275.02637482 320.53843307 C279.0993863 320.54907408 283.17199718 320.5363365 287.24499512 320.52139282 C289.0120345 320.53143107 289.0120345 320.53143107 290.81477165 320.54167211 C303.69563684 320.45010976 314.51170116 316.71454098 324.03747559 307.82794189 C336.71134622 294.28926597 336.37622979 277.51819095 336.33850098 260.1362915 C336.3382186 258.31232708 336.33837783 256.48836255 336.33894348 254.66439819 C336.33922947 249.73326019 336.33336484 244.80214669 336.32636952 239.87101436 C336.32010292 234.71005679 336.31952957 229.54909861 336.31834412 224.38813782 C336.31524054 214.62424996 336.30704029 204.86037335 336.29699463 195.09649044 C336.28580323 183.97678503 336.28031542 172.85707907 336.27529919 161.73736942 C336.26485685 138.87172068 336.24727629 116.00608192 336.22497559 93.14044189 C333.15438457 94.96319728 330.24099031 96.79763984 327.43200684 99.00372314 C326.37723145 99.82840088 326.37723145 99.82840088 325.30114746 100.66973877 C324.18062988 101.55242432 324.18062988 101.55242432 323.03747559 102.45294189 C321.41904378 103.71994279 319.80055255 104.98686777 318.18200684 106.25372314 C317.3578125 106.90034912 316.53361816 107.5469751 315.68444824 108.2131958 C311.87305989 111.19980486 308.04876816 114.16974295 304.22497559 117.14044189 C302.72490537 118.30701828 301.22490557 119.47368522 299.72497559 120.64044189 C278.72497559 136.97377523 257.72497559 153.30710856 236.72497559 169.64044189 C235.98231445 170.21834473 235.23965332 170.79624756 234.4744873 171.3916626 C232.9772011 172.55565881 231.47883086 173.71826195 229.97937012 174.87945557 C226.17765579 177.82638322 222.3989954 180.79662609 218.65466309 183.81622314 C192.52866216 204.77911544 164.68162354 214.69257268 130.87780762 211.95001221 C105.62346475 209.17853897 85.87431058 196.44770897 66.52331543 180.9710083 C62.78411866 177.99283777 59.00301991 175.06905325 55.22497559 172.14044189 C53.72476518 170.97404581 52.22476532 169.80737885 50.72497559 168.64044189 C49.98247559 168.06294189 49.23997559 167.48544189 48.47497559 166.89044189 C-12.27502441 119.64044189 -12.27502441 119.64044189 -14.52844238 117.88751221 C-16.01669814 116.73015965 -17.50530056 115.57325272 -18.9942627 114.41680908 C-22.92702391 111.3613495 -26.85207688 108.29658924 -30.76721191 105.21856689 C-31.58447754 104.57790283 -32.40174316 103.93723877 -33.24377441 103.27716064 C-34.81110839 102.04822832 -36.37632539 100.81658976 -37.93908691 99.58184814 C-38.64549316 99.02884033 -39.35189941 98.47583252 -40.07971191 97.90606689 C-40.69830078 97.41912354 -41.31688965 96.93218018 -41.95422363 96.43048096 C-43.82233972 95.10691896 -45.7204332 94.14189181 -47.77502441 93.14044189 Z " fill="#000000" transform="translate(111.7750244140625,73.85955810546875)"/>
</svg>
