<?xml version="1.0" encoding="UTF-8"?>
<svg version="1.1" xmlns="http://www.w3.org/2000/svg" width="512" height="512">
<path d="M0 0 C0.96594086 0.00054382 1.93188171 0.00108765 2.92709351 0.00164795 C18.82427694 0.04267209 34.1070568 0.96742637 49.6875 4.375 C51.16669922 4.69645996 51.16669922 4.69645996 52.67578125 5.02441406 C93.62144938 14.2412142 130.47407042 33.4675562 161.6875 61.375 C162.26983398 61.89416992 162.85216797 62.41333984 163.45214844 62.94824219 C169.94369421 68.76215853 176.11336927 74.66154145 181.6875 81.375 C182.46996094 82.24640625 183.25242187 83.1178125 184.05859375 84.015625 C213.00993644 116.51674278 232.16563537 159.5009304 238.6875 202.375 C238.86265137 203.49511475 239.03780273 204.61522949 239.21826172 205.76928711 C240.8222463 217.07945314 241.08675288 228.27504914 241.0625 239.6875 C241.06168427 241.13641129 241.06168427 241.13641129 241.06085205 242.61459351 C241.01982791 258.51177694 240.09507363 273.7945568 236.6875 289.375 C236.36604004 290.85419922 236.36604004 290.85419922 236.03808594 292.36328125 C225.03958589 341.22415776 198.58419619 389.07938546 159.6875 421.375 C158.38039063 422.54869141 158.38039063 422.54869141 157.046875 423.74609375 C124.54575722 452.69743644 81.5615696 471.85313537 38.6875 478.375 C37.56738525 478.55015137 36.44727051 478.72530273 35.29321289 478.90576172 C23.98304686 480.5097463 12.78745086 480.77425288 1.375 480.75 C0.40905914 480.74945618 -0.55688171 480.74891235 -1.55209351 480.74835205 C-17.44927694 480.70732791 -32.7320568 479.78257363 -48.3125 476.375 C-49.29863281 476.16069336 -50.28476563 475.94638672 -51.30078125 475.72558594 C-100.16165776 464.72708589 -148.01688546 438.27169619 -180.3125 399.375 C-181.09496094 398.50359375 -181.87742188 397.6321875 -182.68359375 396.734375 C-211.63493644 364.23325722 -230.79063537 321.2490696 -237.3125 278.375 C-237.48765137 277.25488525 -237.66280273 276.13477051 -237.84326172 274.98071289 C-239.4472463 263.67054686 -239.71175288 252.47495086 -239.6875 241.0625 C-239.68695618 240.09655914 -239.68641235 239.13061829 -239.68585205 238.13540649 C-239.64482791 222.23822306 -238.72007363 206.9554432 -235.3125 191.375 C-235.09819336 190.38886719 -234.88388672 189.40273437 -234.66308594 188.38671875 C-223.66458589 139.52584224 -197.20919619 91.67061454 -158.3125 59.375 C-157.44109375 58.59253906 -156.5696875 57.81007812 -155.671875 57.00390625 C-123.17075722 28.05256356 -80.1865696 8.89686463 -37.3125 2.375 C-36.19238525 2.19984863 -35.07227051 2.02469727 -33.91821289 1.84423828 C-22.60804686 0.2402537 -11.41245086 -0.02425288 0 0 Z M-139.76171875 88 C-142.3125 90.375 -142.3125 90.375 -144.94921875 92.47265625 C-148.55568994 95.37571653 -151.32397744 98.85543563 -154.3125 102.375 C-155.12847656 103.29152344 -155.94445312 104.20804687 -156.78515625 105.15234375 C-186.12958043 138.39575255 -206.10199732 184.35649467 -206.55078125 229.02734375 C-206.5605751 229.83637146 -206.57036896 230.64539917 -206.58045959 231.47894287 C-207.11588011 287.22531433 -190.64512319 339.83755269 -151.6875 380.82421875 C-149.3125 383.375 -149.3125 383.375 -147.21484375 386.01171875 C-144.31178347 389.61818994 -140.83206437 392.38647744 -137.3125 395.375 C-136.39597656 396.19097656 -135.47945313 397.00695312 -134.53515625 397.84765625 C-94.4830594 433.20220507 -39.98054367 451.17887443 13.24389648 448.05200195 C43.34451021 445.80707397 72.11030283 437.58566461 98.6875 423.375 C99.29335938 423.05273438 99.89921875 422.73046875 100.5234375 422.3984375 C114.88178819 414.68631028 127.44729236 405.07110786 139.6875 394.375 C140.53441406 393.65183594 141.38132812 392.92867188 142.25390625 392.18359375 C147.20029799 387.90676434 151.48758185 383.3757139 155.6875 378.375 C156.49832031 377.46363281 157.30914062 376.55226563 158.14453125 375.61328125 C187.48404607 342.39994595 207.47695268 296.39794835 207.92578125 251.72265625 C207.9355751 250.91362854 207.94536896 250.10460083 207.95545959 249.27105713 C208.49088011 193.52468567 192.02012319 140.91244731 153.0625 99.92578125 C150.6875 97.375 150.6875 97.375 148.58984375 94.73828125 C145.68678347 91.13181006 142.20706437 88.36352256 138.6875 85.375 C137.77097656 84.55902344 136.85445313 83.74304688 135.91015625 82.90234375 C70.42239507 25.08727598 -25.60846035 17.95849541 -139.76171875 88 Z " fill="#000000" transform="translate(255.3125,15.625)"/>
<path d="M0 0 C4.79975675 2.22845849 7.58386269 5.35897853 10 10 C11.14976496 13.29458176 11.95014117 16.64988532 12.74902344 20.04443359 C12.99344681 21.04017395 13.23787018 22.03591431 13.48970032 23.06182861 C14.29094097 26.33805257 15.07522193 29.61808571 15.859375 32.8984375 C16.41312163 35.17698093 16.96792576 37.45526759 17.52374268 39.73330688 C18.98096942 45.71811956 20.42382863 51.70630624 21.8637085 57.6953125 C23.33666382 63.81069922 24.82320108 69.92278095 26.30859375 76.03515625 C29.21902038 88.02024449 32.11427705 100.00894162 35 112 C36.84674964 108.42244604 38.15311898 104.7718863 39.39501953 100.95019531 C39.74194099 99.89523865 39.74194099 99.89523865 40.09587097 98.81896973 C40.86108761 96.48962943 41.62193091 94.15888458 42.3828125 91.828125 C42.92100907 90.18730441 43.45949688 88.54657932 43.9982605 86.90594482 C45.42155692 82.56936046 46.84124098 78.23160216 48.2600708 73.89355469 C49.67412735 69.57165665 51.09100339 65.2506838 52.5078125 60.9296875 C52.78343899 60.08872276 53.05906548 59.24775803 53.34304428 58.38130951 C54.71197129 54.2051609 56.08259722 50.02958279 57.456604 45.85510254 C57.98709979 44.2426207 58.51751701 42.630113 59.04785156 41.01757812 C59.30322819 40.24115211 59.55860481 39.4647261 59.82172012 38.66477203 C61.3792752 33.91954771 62.90594107 29.16576949 64.41308594 24.40429688 C64.77038788 23.29076843 65.12768982 22.17723999 65.49581909 21.02996826 C66.13235939 19.04433061 66.75867261 17.05536608 67.37161255 15.06231689 C69.32051437 9.03515363 71.58247501 4.374425 76.9453125 0.6484375 C82.6993258 -1.16746784 89.08150698 -0.8907289 94.5 1.625 C100.72382463 7.5376334 100.72382463 7.5376334 101.28503418 12.54135132 C101.39518313 20.36266255 99.96637162 26.74696446 97.40625 34.1015625 C97.02818207 35.23551453 96.65011414 36.36946655 96.2605896 37.53778076 C95.23617168 40.60170106 94.19656793 43.65993539 93.15041351 46.71648407 C92.04743393 49.95296988 90.96575573 53.19654497 89.88330078 56.43994141 C88.55209828 60.42616758 87.22017821 64.41212312 85.88040161 68.39547729 C82.08740019 79.67859094 78.43571494 91.00413426 74.83557129 102.35015869 C73.23364323 107.39463403 71.6205303 112.43552825 70.0078125 117.4765625 C69.52713318 118.97925186 69.52713318 118.97925186 69.03674316 120.51229858 C68.02483259 123.67497372 67.01242407 126.8374892 66 130 C65.63032104 131.15560425 65.26064209 132.3112085 64.87976074 133.50183105 C62.5582544 140.75510075 60.22597598 148.00477189 57.88043213 155.25030518 C57.13372946 157.56201538 56.39029798 159.87478506 55.65032959 162.18865967 C54.62458396 165.39429781 53.58718057 168.59593725 52.546875 171.796875 C52.24651337 172.74444672 51.94615173 173.69201843 51.63668823 174.66830444 C49.56851324 180.97370546 47.38505321 185.73419945 42.5 190.375 C37.33499991 192.77303575 32.5997712 192.75381535 27 192 C22.21314151 189.77752999 19.31228369 186.6929871 17 182 C15.55170643 177.56449992 14.48732693 173.04064308 13.41015625 168.50390625 C13.07054613 167.11281389 12.72988869 165.72197686 12.38827515 164.33137512 C11.45989585 160.53898838 10.54648685 156.7431365 9.63581467 152.94646454 C8.67113574 148.93512403 7.69327484 144.92699788 6.71704102 140.91845703 C5.03417838 134.00012357 3.36053085 127.0796101 1.69238281 120.15771484 C-0.64259751 110.46967283 -2.99398545 100.78567038 -5.34892273 91.10246277 C-7.52218588 82.16605677 -9.68952124 73.22821453 -11.855793 64.29011154 C-12.56207913 61.37673608 -13.26904046 58.463525 -13.9760437 55.55032349 C-15.09343057 50.94428618 -16.20717385 46.33738161 -17.31818771 41.72980309 C-17.72870689 40.02943635 -18.14033347 38.32933654 -18.55315018 36.62952614 C-19.11997663 34.29460154 -19.68269318 31.95872294 -20.24438477 29.62255859 C-20.40891616 28.94873925 -20.57344755 28.27491991 -20.74296474 27.5806818 C-22.64920272 19.60559199 -23.90115161 13.44005343 -20 6 C-14.22719632 -0.47905094 -8.26185225 -0.76778993 0 0 Z " fill="#000000" transform="translate(275,160)"/>
<path d="M0 0 C1.02141083 -0.01283524 2.04282166 -0.02567047 3.09518433 -0.03889465 C4.19315338 -0.04628159 5.29112244 -0.05366852 6.42236328 -0.0612793 C8.12382004 -0.07338692 8.12382004 -0.07338692 9.85964966 -0.08573914 C12.25863117 -0.09956288 14.6576322 -0.11029267 17.05664062 -0.11816406 C20.72189523 -0.13540032 24.38625321 -0.17930603 28.05126953 -0.22338867 C30.38329416 -0.23351398 32.71532644 -0.24203058 35.04736328 -0.2487793 C36.14128387 -0.26628738 37.23520447 -0.28379547 38.36227417 -0.30183411 C44.53844457 -0.28425258 48.17802431 0.03233835 52.86767578 4.17700195 C56.49601242 7.99630367 57.17768036 11.05979201 57.36767578 16.17700195 C57.17768036 21.29421189 56.49601242 24.35770023 52.86767578 28.17700195 C47.68686711 32.48806154 43.75254093 32.75350221 37.30517578 32.71606445 C35.94090454 32.73375381 35.94090454 32.73375381 34.54907227 32.75180054 C31.65509801 32.78696648 28.76184592 32.7962194 25.86767578 32.80200195 C22.97372316 32.81838464 20.08009007 32.84051114 17.1862793 32.87362671 C15.38997614 32.89313877 13.59352708 32.90260446 11.79711914 32.90054321 C5.66089754 32.95255147 0.95591541 33.46000493 -3.94482422 37.48950195 C-8.08865232 42.58049076 -7.28584546 48.69462365 -7.29345703 54.98095703 C-7.29842194 55.96370102 -7.30338684 56.94644501 -7.3085022 57.95896912 C-7.32308771 61.20483098 -7.32991962 64.45064398 -7.33544922 67.6965332 C-7.34120338 69.95708721 -7.34696108 72.2176412 -7.35272217 74.47819519 C-7.3632217 79.21674832 -7.36907131 83.95528453 -7.37255859 88.69384766 C-7.37804288 94.7565188 -7.40207413 100.81896533 -7.43053055 106.88156605 C-7.44918138 111.55108793 -7.45436383 116.22055594 -7.45589447 120.89011192 C-7.45891569 123.12475501 -7.46692622 125.35939726 -7.48007965 127.59400368 C-7.49719193 130.72446275 -7.49524714 133.85437602 -7.48876953 136.98486328 C-7.49798431 137.90202118 -7.5071991 138.81917908 -7.51669312 139.76412964 C-7.47919137 145.56879685 -6.60280522 149.89662286 -4.13232422 155.17700195 C-0.07152104 158.40481986 3.98378069 159.29418066 9.08203125 159.31884766 C9.90323456 159.32588211 10.72443787 159.33291656 11.57052612 159.34016418 C12.88937302 159.3464106 12.88937302 159.3464106 14.23486328 159.3527832 C16.10857246 159.37597887 17.98227042 159.4000961 19.85595703 159.42504883 C22.80085809 159.46015979 25.74534473 159.48951411 28.69042969 159.50292969 C31.53907987 159.51843482 34.38653126 159.55865403 37.23486328 159.6027832 C38.54763748 159.59992058 38.54763748 159.59992058 39.88693237 159.59700012 C45.36776872 159.70622464 48.51006691 160.54844653 52.86767578 164.17700195 C56.49601242 167.99630367 57.17768036 171.05979201 57.36767578 176.17700195 C57.17768036 181.29421189 56.49601242 184.35770023 52.86767578 188.17700195 C47.3972481 192.95256273 42.43069939 192.77629877 35.36376953 192.7434082 C33.69146019 192.75270607 33.69146019 192.75270607 31.98536682 192.76219177 C29.62770457 192.76928458 27.26999219 192.76612544 24.91235352 192.75341797 C21.34115823 192.73964077 17.77263083 192.7735292 14.20166016 192.81176758 C-3.35979722 192.87180228 -15.65123405 191.04111765 -28.80419922 178.5949707 C-35.46951567 171.53454529 -40.22441049 161.90376115 -40.28622437 152.15187073 C-40.29482483 151.13863235 -40.30342529 150.12539398 -40.31228638 149.08145142 C-40.31654633 147.975466 -40.32080627 146.86948059 -40.32519531 145.72998047 C-40.3333728 144.56034256 -40.34155029 143.39070465 -40.34997559 142.18562317 C-40.37481515 138.30906532 -40.39150495 134.43251523 -40.40576172 130.5559082 C-40.41112533 129.21643506 -40.41650285 127.87696197 -40.42189407 126.53748894 C-40.44352089 120.95885559 -40.46225111 115.38022504 -40.47351646 109.8015604 C-40.48971218 101.83616941 -40.52278447 93.87126955 -40.57991731 85.90606362 C-40.61880539 80.29053985 -40.63817172 74.67514633 -40.64343703 69.05949157 C-40.64706722 65.71370273 -40.6613899 62.36885182 -40.69153976 59.02313423 C-40.85455169 39.8330939 -40.28063137 26.01521297 -26.55029297 11.50512695 C-19.43903382 4.79182148 -9.80578298 0.10763908 0 0 Z " fill="#000000" transform="translate(176.13232421875,159.822998046875)"/>
</svg>
