<?xml version="1.0" encoding="UTF-8"?>
<svg version="1.1" xmlns="http://www.w3.org/2000/svg" width="512" height="512">
<path d="M0 0 C1.11359894 -0.00511093 2.22719788 -0.01022186 3.37454224 -0.01548767 C7.02855923 -0.02930313 10.6823859 -0.02843296 14.33642578 -0.02612305 C16.89413522 -0.03001433 19.45184403 -0.03434989 22.009552 -0.03910828 C27.36055872 -0.04655317 32.71149658 -0.04643147 38.0625 -0.04101562 C44.21894666 -0.03497971 50.37516456 -0.04728685 56.53157222 -0.06858569 C62.48922109 -0.0884273 68.44680003 -0.09136349 74.4044838 -0.08785057 C76.92329572 -0.08836167 79.44211146 -0.09355942 81.96090317 -0.10366249 C85.49234054 -0.1160904 89.02325756 -0.10919687 92.5546875 -0.09765625 C94.09343536 -0.10912186 94.09343536 -0.10912186 95.66326904 -0.12081909 C107.9351944 -0.03281139 118.31580262 2.60580205 127.37548828 11.1262207 C134.78738802 19.00921576 137.02773951 27.70378415 138.53173828 38.2121582 C138.68771484 39.21311523 138.84369141 40.21407227 139.00439453 41.24536133 C139.9848998 47.71588574 140.75316039 54.20221035 141.46484375 60.70654297 C141.55603989 61.53388191 141.64723602 62.36122086 141.74119568 63.21363068 C141.96377961 65.23389219 142.18536248 67.25426395 142.40673828 69.2746582 C143.29600872 69.27189282 143.29600872 69.27189282 144.20324421 69.26907158 C158.66932106 69.22478505 173.13539183 69.19174954 187.60152149 69.17103386 C194.59740963 69.16074807 201.59325235 69.14673971 208.58911133 69.1237793 C215.34534317 69.10161603 222.10152788 69.09007617 228.85779381 69.08490372 C231.43046497 69.08121935 234.00313367 69.07402478 236.57578468 69.06319809 C240.18982054 69.04859903 243.80366383 69.04668379 247.41772461 69.04760742 C248.47221298 69.04041687 249.52670135 69.03322632 250.61314392 69.02581787 C263.64266927 69.06165547 274.77802333 71.48026724 285.40673828 79.2746582 C286.39673828 79.9965332 287.38673828 80.7184082 288.40673828 81.4621582 C295.45966273 87.49960924 300.51144313 97.23828467 302.40673828 106.2746582 C302.49851422 108.00397871 302.53756671 109.73643561 302.54095936 111.46818638 C302.5454172 112.52483574 302.54987505 113.58148511 302.55446798 114.67015415 C302.55419143 116.40985813 302.55419143 116.40985813 302.5539093 118.18470764 C302.55758599 119.41768048 302.56126268 120.65065332 302.56505078 121.92098898 C302.57417111 125.34540511 302.57878589 128.76977334 302.58144009 132.19419706 C302.58534629 135.88694907 302.59492447 139.57968725 302.60365295 143.27243042 C302.62340929 152.19191393 302.63348289 161.11139856 302.64238074 170.03089848 C302.64676534 174.23293024 302.65213173 178.43496074 302.65736961 182.6369915 C302.67438168 196.60870254 302.6888751 210.5804128 302.69611835 224.55213261 C302.6980282 228.17733321 302.69994854 231.8025338 302.7019043 235.42773438 C302.70238804 236.32874323 302.70287178 237.22975209 302.70337018 238.15806424 C302.71166764 252.74860149 302.73699985 267.33905668 302.76948497 281.92955811 C302.80257655 296.91483395 302.82056905 311.90006812 302.8237626 326.88538069 C302.82592584 335.29681355 302.83464715 343.70812678 302.86022377 352.119524 C302.88195953 359.28427002 302.88996712 366.44886733 302.88025699 373.61364258 C302.87572046 377.26670508 302.87756027 380.91946096 302.89701843 384.57248116 C302.91797033 388.54035468 302.90763835 392.50780881 302.89448547 396.47572327 C302.91093934 398.19200466 302.91093934 398.19200466 302.92772561 399.94295841 C302.82141435 413.26026272 297.58496559 424.67923875 288.40673828 434.2746582 C273.91389285 445.5971937 258.72009495 446.57991838 240.94775391 446.52862549 C239.19703288 446.5309333 237.44631283 446.53411197 235.69559479 446.53807998 C230.91158042 446.54639254 226.12764632 446.54231885 221.34363174 446.53610754 C216.17382527 446.53156953 211.00403228 446.5385735 205.83422852 446.54406738 C195.71715929 446.55294863 185.60011977 446.55104502 175.48304939 446.5452421 C167.25879803 446.54072063 159.03455498 446.54011481 150.81030273 446.54228973 C149.63864012 446.5425962 148.46697751 446.54290267 147.25980997 446.54321842 C144.87940915 446.54385789 142.49900834 446.54450631 140.11860752 446.5451636 C117.81103736 446.55086318 95.50348364 446.54431484 73.19591618 446.53356287 C54.06566114 446.5246277 34.93543038 446.52617985 15.80517578 446.53540039 C-6.42397715 446.54610959 -28.65311567 446.55031389 -50.88227081 446.54417586 C-53.25378926 446.54353878 -55.62530772 446.54291004 -57.99682617 446.54228973 C-59.16358053 446.54198118 -60.33033488 446.54167263 -61.53244543 446.54135473 C-69.74437144 446.53962974 -77.9562883 446.54253867 -86.16821289 446.54724884 C-96.17928525 446.55286488 -106.19032626 446.55132599 -116.20139503 446.54068735 C-121.30665436 446.53544041 -126.41186145 446.53335726 -131.51712036 446.53998566 C-136.19517509 446.54596742 -140.87312943 446.54263336 -145.55117512 446.53203055 C-147.23877012 446.52980595 -148.92637369 446.53091156 -150.61396313 446.53578213 C-166.07351039 446.57695952 -179.74869694 445.69400571 -192.59326172 436.2746582 C-193.58326172 435.5527832 -194.57326172 434.8309082 -195.59326172 434.0871582 C-203.09862947 427.64275867 -206.54731949 418.41248489 -209.59326172 409.2746582 C-209.68768269 407.58654458 -209.72417185 405.89492679 -209.7274828 404.20417786 C-209.73194064 403.14951954 -209.73639848 402.09486122 -209.74099141 401.00824356 C-209.74080705 399.84552807 -209.74062269 398.68281258 -209.74043274 397.48486328 C-209.74410943 396.25274487 -209.74778612 395.02062645 -209.75157422 393.75117111 C-209.7607042 390.32449563 -209.76531146 386.89786806 -209.76796353 383.47118497 C-209.77186591 379.7777337 -209.78144446 376.0842963 -209.79017639 372.39085388 C-209.80994512 363.46650328 -209.82000861 354.54215153 -209.82890418 345.6177845 C-209.83328737 341.4142563 -209.83865419 337.21072936 -209.84389305 333.00720215 C-209.86090754 319.03124249 -209.87540058 305.05528361 -209.88264179 291.07931519 C-209.88455167 287.45188394 -209.886472 283.8244527 -209.88842773 280.19702148 C-209.88915334 278.84465995 -209.88915334 278.84465995 -209.88989361 277.46497798 C-209.89818961 262.86791063 -209.92351826 248.27092534 -209.95600841 233.67389381 C-209.98910031 218.68412958 -210.00709257 203.69440701 -210.01028603 188.70460606 C-210.01244941 180.28980485 -210.02117259 171.87512324 -210.04674721 163.46035767 C-210.06848354 156.29192765 -210.07649034 149.12364626 -210.06678043 141.95518702 C-210.06224385 138.30010627 -210.06408391 134.64533197 -210.08354187 130.9902935 C-210.10449375 127.020177 -210.09416176 123.05047967 -210.08100891 119.08032227 C-210.09197816 117.93545255 -210.1029474 116.79058283 -210.11424905 115.61102009 C-210.02843914 104.85569334 -206.84020386 95.98952811 -200.59326172 87.2746582 C-199.87138672 86.2640332 -199.14951172 85.2534082 -198.40576172 84.2121582 C-190.22752308 74.86196014 -178.72544298 70.31055844 -166.59326172 69.2746582 C-162.70982989 69.14091943 -158.83022807 69.14801966 -154.94482422 69.16113281 C-153.80248825 69.16098679 -152.66015228 69.16084076 -151.48320007 69.16069031 C-147.72820093 69.16138389 -143.97325213 69.16915031 -140.21826172 69.17700195 C-137.60652697 69.1788681 -134.99479187 69.18029108 -132.38305664 69.18128967 C-126.22447776 69.18438859 -120.06591679 69.19258246 -113.90734577 69.20263916 C-106.89157676 69.21384515 -99.87580687 69.21932202 -92.86003113 69.2243346 C-78.43776545 69.23476637 -64.01551384 69.25233776 -49.59326172 69.2746582 C-49.45885681 68.05422821 -49.3244519 66.83379822 -49.18597412 65.5763855 C-49.00633459 63.95090434 -48.82666588 62.3254264 -48.64697266 60.69995117 C-48.55878265 59.89845139 -48.47059265 59.0969516 -48.37973022 58.27116394 C-44.04577435 19.11710377 -44.04577435 19.11710377 -32.49951172 8.7355957 C-22.52776868 1.09331723 -12.28712957 -0.02955716 0 0 Z M-12.59326172 33.2746582 C-15.54383494 45.0769511 -16.87279667 57.23140283 -18.59326172 69.2746582 C24.30673828 69.2746582 67.20673828 69.2746582 111.40673828 69.2746582 C110.47493967 49.78737898 110.47493967 49.78737898 104.40673828 32.2746582 C101.57281997 31.33001877 99.83234738 31.14707007 96.89686584 31.14094543 C95.97296555 31.13668045 95.04906525 31.13241547 94.09716797 31.12802124 C92.57990112 31.12870102 92.57990112 31.12870102 91.03198242 31.12939453 C89.96507675 31.12603592 88.89817108 31.12267731 87.79893494 31.11921692 C84.26324304 31.1096983 80.72759845 31.1077634 77.19189453 31.10668945 C74.73953736 31.10347772 72.28718037 31.10011371 69.83482361 31.09660339 C64.69090328 31.09060999 59.54699975 31.08876373 54.40307617 31.08935547 C47.80416794 31.08945715 41.20536716 31.07579948 34.60648441 31.05858326 C29.54080203 31.04747832 24.47514575 31.04543579 19.40945244 31.04596519 C16.97613593 31.04478301 14.5428188 31.04034798 12.10951424 31.03263283 C8.70989523 31.02286258 5.31051126 31.02569925 1.91088867 31.03173828 C0.90140167 31.02611877 -0.10808533 31.02049927 -1.14816284 31.01470947 C-2.07488297 31.01890396 -3.00160309 31.02309845 -3.95640564 31.02742004 C-5.16179694 31.02660289 -5.16179694 31.02660289 -6.39153957 31.02576923 C-9.10804016 31.33285023 -10.44160898 31.53411928 -12.59326172 33.2746582 Z M-174.33544922 104.80981445 C-178.28428297 110.13393168 -178.74923904 113.23375884 -178.77026367 119.7565918 C-178.77683487 120.63493683 -178.78340607 121.51328186 -178.79017639 122.41824341 C-178.80994564 125.33652836 -178.82158517 128.25476154 -178.83154297 131.1730957 C-178.8356185 132.17127949 -178.83969402 133.16946327 -178.84389305 134.19789505 C-178.86477748 139.48959395 -178.87906423 144.78126681 -178.88842773 150.07299805 C-178.8994471 155.51777663 -178.93378822 160.96214142 -178.97359943 166.40677452 C-178.99986904 170.60894481 -179.00812913 174.81101854 -179.01170921 179.0132637 C-179.01655501 181.01853834 -179.02811115 183.02380925 -179.04674721 185.02900314 C-179.17821027 200.12249803 -177.97613032 211.86671174 -168.59326172 224.2746582 C-167.66513672 225.6049707 -167.66513672 225.6049707 -166.71826172 226.9621582 C-157.90738566 236.5504645 -145.6334066 241.63811169 -132.74987411 242.45492935 C-129.61501391 242.51888163 -126.48603285 242.52228942 -123.35058594 242.50170898 C-121.57812248 242.50214706 -121.57812248 242.50214706 -119.76985168 242.50259399 C-115.89580737 242.50120973 -112.0219596 242.48569104 -108.14794922 242.4699707 C-105.44939278 242.46511999 -102.75083653 242.46329342 -100.05227661 242.46139526 C-93.69541013 242.45520416 -87.33861327 242.43882578 -80.98177731 242.41869628 C-73.7386459 242.39626308 -66.49551099 242.38532528 -59.25235343 242.37530541 C-44.36595088 242.35445717 -29.4796133 242.3193278 -14.59326172 242.2746582 C-14.5786792 241.5539917 -14.56409668 240.8333252 -14.54907227 240.09082031 C-14.47419213 236.79741733 -14.37766331 233.50498385 -14.28076172 230.2121582 C-14.24692383 228.5115625 -14.24692383 228.5115625 -14.21240234 226.77661133 C-13.97282109 219.30603227 -13.77229529 213.2947401 -8.09326172 207.8996582 C-4.83553119 205.78213336 -2.35739321 205.15011028 1.44758606 205.13421631 C2.26762619 205.12850616 3.08766632 205.12279602 3.93255615 205.11691284 C4.82871643 205.11579498 5.72487671 205.11467712 6.64819336 205.11352539 C7.5948436 205.10856049 8.54149384 205.10359558 9.51683044 205.09848022 C12.6533175 205.08385709 15.78975397 205.07705624 18.92626953 205.0715332 C21.10479229 205.06578177 23.28331504 205.06002403 25.46183777 205.05426025 C30.03242224 205.04374976 34.60298912 205.03790744 39.17358398 205.03442383 C45.0280067 205.02893978 50.88219676 205.00491372 56.73654652 204.97645187 C61.23785581 204.95782086 65.73910912 204.95261964 70.24045372 204.95108795 C72.39859984 204.94806183 74.55674499 204.94003467 76.71485329 204.92690277 C79.73578168 204.9098333 82.75614245 204.9117249 85.77709961 204.91821289 C86.66718719 204.90899811 87.55727478 204.89978333 88.47433472 204.89028931 C93.53997229 204.92434039 97.01890969 205.46169978 101.40673828 208.2746582 C105.94059625 213.05358957 106.49406158 216.71971043 106.72314453 223.1340332 C106.76503906 224.24907227 106.80693359 225.36411133 106.85009766 226.51293945 C106.88941406 227.67180664 106.92873047 228.83067383 106.96923828 230.0246582 C107.01242187 231.19899414 107.05560547 232.37333008 107.10009766 233.58325195 C107.20608622 236.48027271 107.30815466 239.37737755 107.40673828 242.2746582 C123.01046072 242.32148042 138.61416403 242.35669698 154.21793938 242.37828255 C161.46383901 242.38857368 168.70969488 242.4025924 175.95556641 242.42553711 C182.27466651 242.44553749 188.59373488 242.45839035 194.91286576 242.46283519 C198.25554684 242.46543139 201.59806569 242.47255412 204.94073105 242.48611832 C208.68189565 242.50069216 212.42287396 242.50263365 216.1640625 242.50170898 C217.2595491 242.50889954 218.35503571 242.51609009 219.48371887 242.52349854 C233.48616658 242.48618983 247.44386754 238.93549095 257.89111328 228.98950195 C266.93256138 218.75961609 271.54005899 208.05876308 271.58374023 194.47045898 C271.59031143 193.58218414 271.59688263 192.6939093 271.60365295 191.77871704 C271.62334615 188.84246737 271.63503816 185.90626869 271.64501953 182.9699707 C271.64909506 181.96613216 271.65317059 180.96229362 271.65736961 179.92803574 C271.67821089 174.61730913 271.69252242 169.30660824 271.7019043 163.99584961 C271.71297966 158.5124269 271.74739825 153.02940875 271.787076 147.54612923 C271.81321833 143.32704921 271.8215939 139.10806609 271.82518578 134.8889122 C271.83005592 132.86751439 271.84168206 130.84612103 271.86022377 128.8248024 C271.8845699 125.99542329 271.88365872 123.16709826 271.87670898 120.33764648 C271.88951904 119.50523437 271.9023291 118.67282227 271.91552734 117.81518555 C271.86783138 112.48105408 270.86732872 109.55367229 267.40673828 105.2746582 C266.95298828 104.6971582 266.49923828 104.1196582 266.03173828 103.5246582 C261.61379464 100.12624002 256.42962762 100.02380904 251.06623936 100.02018261 C249.98519486 100.01537289 249.98519486 100.01537289 248.88231108 100.01046601 C246.46667129 100.00216277 244.05127923 100.00809138 241.63563538 100.01396179 C239.88652888 100.01094126 238.1374237 100.00705227 236.38832086 100.00236923 C231.58110124 99.9920679 226.77395602 99.99427648 221.96673024 99.99854982 C216.78259607 100.00101315 211.59847999 99.99200779 206.41435242 99.98451233 C196.25803577 99.97175261 186.10174555 99.9699732 175.94542224 99.97231259 C167.69190302 99.9740944 159.43839184 99.97234906 151.18487358 99.96808815 C150.01095442 99.96749296 148.83703525 99.96689777 147.62754278 99.96628455 C145.2428641 99.96507282 142.85818542 99.96385868 140.47350674 99.96264217 C118.10221257 99.95176184 95.73093347 99.95393153 73.35963845 99.96002702 C52.88524058 99.96519726 32.41089027 99.95393876 11.93650181 99.9349288 C-9.07856706 99.91556614 -30.09361342 99.90729159 -51.10869128 99.91105205 C-62.91030064 99.9129664 -74.71186951 99.91045372 -86.5134716 99.89633751 C-96.55961017 99.88444282 -106.60568331 99.88299736 -116.65182274 99.89512768 C-121.77872378 99.90102965 -126.90550505 99.90207941 -132.03239822 99.89012527 C-136.72465777 99.87931155 -141.41669688 99.88231589 -146.10894591 99.89638696 C-147.80739927 99.89904635 -149.50586965 99.8966286 -151.20430636 99.8886511 C-153.51211138 99.87856286 -155.81914752 99.88695123 -158.12692165 99.89992809 C-159.40902254 99.89987308 -160.69112342 99.89981806 -162.01207584 99.89976138 C-166.69239773 100.38972137 -170.7273547 101.63048453 -174.33544922 104.80981445 Z M16.40673828 235.2746582 C16.40673828 249.4646582 16.40673828 263.6546582 16.40673828 278.2746582 C20.90298828 280.7702832 25.39923828 283.2659082 30.03173828 285.8371582 C31.43891113 286.62936768 32.84608398 287.42157715 34.29589844 288.23779297 C35.41786621 288.84937256 36.53983398 289.46095215 37.69580078 290.09106445 C38.83742676 290.72471924 39.97905273 291.35837402 41.15527344 292.01123047 C44.93657592 293.4805382 46.5562714 293.43586996 50.40673828 292.2746582 C53.5368035 290.89371446 53.5368035 290.89371446 56.68017578 289.11450195 C57.72093262 288.54852295 58.76168945 287.98254395 59.83398438 287.39941406 C61.78812256 286.31672241 61.78812256 286.31672241 63.78173828 285.2121582 C67.94798828 282.9227832 72.11423828 280.6334082 76.40673828 278.2746582 C76.40673828 264.0846582 76.40673828 249.8946582 76.40673828 235.2746582 C56.60673828 235.2746582 36.80673828 235.2746582 16.40673828 235.2746582 Z M-178.59326172 258.2746582 C-178.68672211 277.20702468 -178.75724927 296.13934432 -178.80051041 315.07189369 C-178.82113163 323.86270486 -178.84924377 332.65337266 -178.89501953 341.4440918 C-178.93490083 349.10650077 -178.96069773 356.7688059 -178.9696157 364.43131578 C-178.97482829 368.48823233 -178.98707037 372.54485182 -179.01618195 376.60167313 C-179.04337164 380.42169298 -179.05169966 384.24129394 -179.04569244 388.06140137 C-179.04679111 389.46182915 -179.05472421 390.86227122 -179.07008362 392.2626152 C-179.38198367 402.1341225 -179.38198367 402.1341225 -174.59326172 410.2746582 C-169.2357289 415.35744575 -164.57928884 415.39933392 -157.40704536 415.40329266 C-156.33279675 415.40592221 -156.33279675 415.40592221 -155.23684615 415.40860489 C-152.83065851 415.4132667 -150.42453124 415.41079892 -148.01834106 415.40837097 C-146.27834838 415.41023885 -144.53835612 415.41253946 -142.79836452 415.41523629 C-138.01170663 415.42136352 -133.22506619 415.42121962 -128.43840528 415.42004192 C-123.27811745 415.41983815 -118.11783526 415.4253544 -112.95755005 415.43009949 C-102.84588681 415.43841152 -92.73422939 415.44115457 -82.62256302 415.44171187 C-74.40525393 415.44218674 -66.18794676 415.44424004 -57.97063828 415.44741249 C-34.6832007 415.45622035 -11.39576773 415.46083163 11.89167152 415.46008202 C13.14751758 415.46004206 14.40336363 415.4600021 15.69726562 415.45996094 C16.95464138 415.45992006 18.21201713 415.45987918 19.50749518 415.45983706 C39.8914142 415.45943049 60.27531475 415.46900246 80.65922843 415.4830993 C101.57934141 415.49745305 122.49944538 415.50437005 143.41956341 415.50350553 C155.16864179 415.50317322 166.9177008 415.50593491 178.66677475 415.51668358 C188.66900727 415.52577538 198.67121166 415.5279747 208.67344652 415.52117416 C213.77803984 415.51790235 218.88257913 415.51787607 223.98716736 415.5265274 C228.65906836 415.5343641 233.33087225 415.53299004 238.0027708 415.52424327 C239.69385222 415.52270203 241.38494079 415.52454782 243.07601379 415.53010335 C245.37374018 415.53715255 247.67112489 415.53187846 249.96883965 415.52354717 C251.88369079 415.52387322 251.88369079 415.52387322 253.83722579 415.52420586 C258.42600005 415.20340074 262.77950332 414.64905586 266.36767578 411.6184082 C266.83431641 411.0099707 267.30095703 410.4015332 267.78173828 409.7746582 C268.26384766 409.1662207 268.74595703 408.5577832 269.24267578 407.9309082 C271.54664058 404.65278379 271.5304091 402.47482769 271.5269928 398.49142456 C271.52836746 397.26020874 271.52974213 396.02899292 271.53115845 394.76046753 C271.52761908 393.38873267 271.52398426 392.01699805 271.52026367 390.64526367 C271.51998172 389.20656333 271.52013969 387.76786285 271.52070618 386.3291626 C271.52099384 382.41617015 271.51510206 378.50320818 271.50813222 374.59022284 C271.50189359 370.50360104 271.50129448 366.4169786 271.50010681 362.33035278 C271.496995 354.58848218 271.48878363 346.84662564 271.47875732 339.10476124 C271.46759153 330.29230889 271.46208456 321.47985588 271.45706189 312.66739821 C271.4466009 294.53647689 271.42900436 276.40556868 271.40673828 258.2746582 C269.06529472 259.43687595 266.75072203 260.62603366 264.44580078 261.8605957 C252.98759904 267.86500806 241.02848478 272.34117295 227.90176392 272.43287659 C226.83333252 272.44266541 225.76490112 272.45245422 224.66409302 272.46253967 C223.50747162 272.46829514 222.35085022 272.4740506 221.15917969 272.47998047 C219.92935364 272.48988007 218.69952759 272.49977966 217.43243408 272.50997925 C214.07339765 272.53608982 210.714384 272.55798346 207.35530901 272.57798123 C203.83990509 272.59991381 200.32454339 272.62726678 196.80917358 272.65403748 C190.15827789 272.70386636 183.50735864 272.74884138 176.85641706 272.79205984 C169.28202901 272.84151624 161.70768333 272.89640309 154.13333631 272.95173943 C138.55784283 273.06540888 122.98231032 273.1722804 107.40673828 273.2746582 C107.34615234 274.37600098 107.28556641 275.47734375 107.22314453 276.61206055 C107.13869913 278.06991662 107.05405315 279.52776108 106.96923828 280.9855957 C106.91026367 282.07215454 106.91026367 282.07215454 106.85009766 283.18066406 C106.52578511 288.65343825 106.20869549 292.54635542 103.40673828 297.2746582 C95.87377996 303.63048187 86.15584993 307.79074648 77.46923828 312.3371582 C75.95664447 313.13425929 74.44427313 313.93178267 72.93212891 314.72973633 C70.04112803 316.2540276 67.14472189 317.76715014 64.24316406 319.27124023 C61.93961356 320.46608337 59.6643888 321.6865665 57.39453125 322.94604492 C56.55164551 323.40382324 55.70875977 323.86160156 54.84033203 324.33325195 C54.15898193 324.71666748 53.47763184 325.10008301 52.77563477 325.49511719 C47.64066423 327.18489982 43.62158799 326.74938187 38.70996094 324.83007812 C37.44654089 324.175794 36.19202762 323.5040937 34.94580078 322.81762695 C34.26208405 322.45823532 33.57836731 322.09884369 32.87393188 321.7285614 C31.43505564 320.97068573 29.99976554 320.20596561 28.56799316 319.43475342 C26.46004755 318.30327298 24.34062132 317.19792501 22.21435547 316.10131836 C18.75180377 314.3141409 15.30187846 312.50440097 11.85742188 310.68261719 C10.45740875 309.94374882 9.05567053 309.20814118 7.65234375 308.47558594 C5.57453749 307.39083831 3.50190384 306.29674211 1.43017578 305.20043945 C0.81137543 304.87948807 0.19257507 304.55853668 -0.44497681 304.2278595 C-10.70267034 298.75271926 -10.70267034 298.75271926 -12.72207642 293.13374329 C-13.65862443 288.98512134 -14.03229738 285.07172107 -14.21826172 280.8371582 C-14.25693359 280.10561523 -14.29560547 279.37407227 -14.33544922 278.62036133 C-14.42860156 276.83882289 -14.51196458 275.05677698 -14.59326172 273.2746582 C-15.22972689 273.27226985 -15.86619205 273.2698815 -16.52194405 273.26742077 C-32.06573556 273.20807881 -47.6093511 273.13240767 -63.15297127 273.03894329 C-70.67000036 272.99412988 -78.1869836 272.95468264 -85.70410156 272.92822266 C-92.26211241 272.90512469 -98.81997637 272.87159714 -105.37787044 272.82595664 C-108.84472004 272.80218198 -112.31142561 272.7833508 -115.77835464 272.7770443 C-119.66489682 272.76977785 -123.55108081 272.7392077 -127.4375 272.70703125 C-129.12928879 272.70918388 -129.12928879 272.70918388 -130.85525513 272.71138 C-141.80503809 272.58419237 -152.38576853 270.54733498 -162.53076172 266.3996582 C-163.1555542 266.1442627 -163.78034668 265.88886719 -164.42407227 265.62573242 C-169.00165182 263.6896866 -172.71383565 261.34211137 -176.59326172 258.2746582 C-177.25326172 258.2746582 -177.91326172 258.2746582 -178.59326172 258.2746582 Z " fill="#000000" transform="translate(209.59326171875,32.725341796875)"/>
</svg>
